# Blender v3.4.1 OBJ File: 'untitled.blend'
# www.blender.org
mtllib marble.mtl
o marble_Mesh
v -0.000000 0.200000 0.000000
v 0.011340 0.196605 -0.034900
v 0.036696 0.196605 0.000000
v 0.048319 0.190874 -0.035106
v 0.072146 0.186534 0.000000
v 0.022294 0.186534 -0.068615
v 0.084252 0.177905 -0.035372
v 0.105146 0.170130 0.000000
v 0.059676 0.177905 -0.069198
v 0.032492 0.170130 -0.100000
v 0.117662 0.157767 -0.035571
v 0.134577 0.147950 0.000000
v 0.095901 0.161084 -0.069676
v 0.070189 0.157767 -0.100912
v 0.041586 0.147950 -0.127990
v 0.147012 0.130870 -0.035502
v 0.159438 0.120746 0.000000
v 0.129010 0.136030 -0.069657
v 0.106115 0.136030 -0.101171
v 0.079194 0.130870 -0.128846
v 0.049269 0.120746 -0.151634
v 0.170777 0.098067 -0.034900
v 0.178885 0.089443 0.000000
v 0.156871 0.103361 -0.068615
v 0.137638 0.105146 -0.100000
v 0.113732 0.103361 -0.127990
v 0.085965 0.098067 -0.151634
v 0.055279 0.089443 -0.170130
v -0.029688 0.196605 -0.021569
v -0.018456 0.190874 -0.056802
v -0.058367 0.186534 -0.042406
v -0.007605 0.177905 -0.091059
v -0.047370 0.177905 -0.078139
v -0.085065 0.170130 -0.061803
v 0.002530 0.157767 -0.122896
v -0.036631 0.161084 -0.112739
v -0.074283 0.157767 -0.097938
v -0.108875 0.147950 -0.079102
v 0.011665 0.130870 -0.150788
v -0.026382 0.136030 -0.144221
v -0.063428 0.136030 -0.132184
v -0.098068 0.130870 -0.115133
v -0.128988 0.120746 -0.093715
v 0.019581 0.098067 -0.173204
v -0.016781 0.103361 -0.170396
v -0.052573 0.105146 -0.161803
v -0.086580 0.103361 -0.147717
v -0.117648 0.098067 -0.128615
v -0.144721 0.089443 -0.105146
v -0.029688 0.196605 0.021569
v -0.059725 0.190874 0.000000
v -0.058367 0.186534 0.042406
v -0.088953 0.177905 -0.020906
v -0.088953 0.177905 0.020906
v -0.085065 0.170130 0.061803
v -0.116099 0.157767 -0.040383
v -0.118540 0.161084 0.000000
v -0.116099 0.157767 0.040383
v -0.108875 0.147950 0.079102
v -0.139803 0.130870 -0.057690
v -0.145315 0.136030 -0.019476
v -0.145315 0.136030 0.019476
v -0.139803 0.130870 0.057690
v -0.128988 0.120746 0.093715
v -0.158675 0.098067 -0.072146
v -0.167242 0.103361 -0.036696
v -0.170130 0.105146 0.000000
v -0.167242 0.103361 0.036696
v -0.158675 0.098067 0.072146
v -0.144721 0.089443 0.105146
v 0.011340 0.196605 0.034900
v -0.018456 0.190874 0.056802
v 0.022294 0.186534 0.068615
v -0.047370 0.177905 0.078139
v -0.007605 0.177905 0.091059
v 0.032492 0.170130 0.100000
v -0.074283 0.157767 0.097938
v -0.036631 0.161084 0.112739
v 0.002530 0.157767 0.122896
v 0.041586 0.147950 0.127990
v -0.098068 0.130870 0.115133
v -0.063428 0.136030 0.132184
v -0.026382 0.136030 0.144221
v 0.011665 0.130870 0.150788
v 0.049269 0.120746 0.151634
v -0.117648 0.098067 0.128615
v -0.086580 0.103361 0.147717
v -0.052573 0.105146 0.161803
v -0.016781 0.103361 0.170396
v 0.019581 0.098067 0.173204
v 0.055279 0.089443 0.170130
v 0.048319 0.190874 0.035106
v 0.059676 0.177905 0.069198
v 0.084252 0.177905 0.035372
v 0.070189 0.157767 0.100912
v 0.095901 0.161084 0.069676
v 0.117662 0.157767 0.035571
v 0.079194 0.130870 0.128846
v 0.106115 0.136030 0.101171
v 0.129010 0.136030 0.069657
v 0.147012 0.130870 0.035502
v 0.085965 0.098067 0.151634
v 0.113732 0.103361 0.127990
v 0.137638 0.105146 0.100000
v 0.156871 0.103361 0.068615
v 0.170777 0.098067 0.034900
v 0.189125 0.061371 -0.021569
v 0.189125 0.061371 0.021569
v 0.197433 0.031942 -0.000000
v 0.192944 0.031215 0.042406
v 0.192944 0.031215 -0.042406
v 0.198904 0.000000 0.020906
v 0.190211 0.000000 0.061803
v 0.198904 0.000000 -0.020906
v 0.190211 0.000000 -0.061803
v 0.190211 0.000000 0.061803
v 0.193032 -0.033287 0.040383
v 0.181021 -0.031215 0.079102
v 0.198904 0.000000 0.020906
v 0.197091 -0.033987 -0.000000
v 0.198904 0.000000 -0.020906
v 0.193032 -0.033287 -0.040383
v 0.190211 0.000000 -0.061803
v 0.181021 -0.031215 -0.079102
v 0.179576 -0.066517 0.057690
v 0.165684 -0.061371 0.093715
v 0.186656 -0.069139 0.019476
v 0.186656 -0.069139 -0.019476
v 0.179576 -0.066517 -0.057690
v 0.165684 -0.061371 -0.093715
v 0.158675 -0.098067 0.072146
v 0.144721 -0.089443 0.105146
v 0.167242 -0.103361 0.036696
v 0.170130 -0.105146 -0.000000
v 0.167242 -0.103361 -0.036696
v 0.158675 -0.098067 -0.072146
v 0.144721 -0.089443 -0.105146
v 0.037929 0.061371 -0.186534
v 0.078957 0.061371 -0.173204
v 0.061010 0.031942 -0.187770
v 0.099954 0.031215 -0.170396
v 0.019292 0.031215 -0.196605
v 0.081347 0.000000 -0.182709
v 0.117557 0.000000 -0.161803
v 0.041582 0.000000 -0.195630
v -0.000000 0.000000 -0.200000
v 0.117557 0.000000 -0.161803
v 0.098056 -0.033287 -0.171105
v 0.131169 -0.031215 -0.147717
v 0.081347 0.000000 -0.182709
v 0.060904 -0.033987 -0.187445
v 0.041582 0.000000 -0.195630
v 0.021244 -0.033287 -0.196063
v -0.000000 0.000000 -0.200000
v -0.019292 -0.031215 -0.196605
v 0.110358 -0.066517 -0.152959
v 0.140327 -0.061371 -0.128615
v 0.076203 -0.069139 -0.171502
v 0.039157 -0.069139 -0.183539
v 0.000626 -0.066517 -0.188614
v -0.037929 -0.061371 -0.186534
v 0.117648 -0.098067 -0.128615
v 0.086580 -0.103361 -0.147717
v 0.052573 -0.105146 -0.161803
v 0.016781 -0.103361 -0.170396
v -0.019581 -0.098067 -0.173204
v -0.055279 -0.089443 -0.170130
v -0.165684 0.061371 -0.093715
v -0.140327 0.061371 -0.128615
v -0.159727 0.031942 -0.116048
v -0.131169 0.031215 -0.147717
v -0.181021 0.031215 -0.079102
v -0.148629 0.000000 -0.133826
v -0.117557 0.000000 -0.161803
v -0.173205 0.000000 -0.100000
v -0.190211 0.000000 -0.061803
v -0.117557 0.000000 -0.161803
v -0.132430 -0.033287 -0.146132
v -0.099954 -0.031215 -0.170396
v -0.148629 0.000000 -0.133826
v -0.159450 -0.033987 -0.115847
v -0.173205 0.000000 -0.100000
v -0.179902 -0.033287 -0.080791
v -0.190211 0.000000 -0.061803
v -0.192944 -0.031215 -0.042406
v -0.111371 -0.066517 -0.152224
v -0.078957 -0.061371 -0.173204
v -0.139560 -0.069139 -0.125470
v -0.162456 -0.069139 -0.093957
v -0.179189 -0.066517 -0.058880
v -0.189125 -0.061371 -0.021569
v -0.085965 -0.098067 -0.151634
v -0.113732 -0.103361 -0.127990
v -0.137638 -0.105146 -0.100000
v -0.156871 -0.103361 -0.068615
v -0.170777 -0.098067 -0.034900
v -0.178885 -0.089443 0.000000
v -0.140327 0.061371 0.128615
v -0.165684 0.061371 0.093715
v -0.159727 0.031942 0.116048
v -0.181021 0.031215 0.079102
v -0.131169 0.031215 0.147717
v -0.173205 0.000000 0.100000
v -0.190211 0.000000 0.061803
v -0.148629 0.000000 0.133826
v -0.117557 0.000000 0.161803
v -0.190211 0.000000 0.061803
v -0.179902 -0.033287 0.080791
v -0.192944 -0.031215 0.042406
v -0.173205 0.000000 0.100000
v -0.159450 -0.033987 0.115847
v -0.148629 0.000000 0.133826
v -0.132429 -0.033287 0.146132
v -0.117557 0.000000 0.161803
v -0.099954 -0.031215 0.170396
v -0.179189 -0.066517 0.058880
v -0.189125 -0.061371 0.021569
v -0.162456 -0.069139 0.093957
v -0.139560 -0.069139 0.125470
v -0.111371 -0.066517 0.152224
v -0.078957 -0.061371 0.173204
v -0.170777 -0.098067 0.034900
v -0.156871 -0.103361 0.068615
v -0.137638 -0.105146 0.100000
v -0.113732 -0.103361 0.127990
v -0.085965 -0.098067 0.151634
v -0.055279 -0.089443 0.170130
v 0.078957 0.061371 0.173204
v 0.037929 0.061371 0.186534
v 0.061010 0.031942 0.187770
v 0.019292 0.031215 0.196605
v 0.099954 0.031215 0.170396
v 0.041582 0.000000 0.195630
v -0.000000 0.000000 0.200000
v 0.081347 0.000000 0.182709
v 0.117557 0.000000 0.161803
v -0.000000 0.000000 0.200000
v 0.021244 -0.033287 0.196063
v -0.019292 -0.031215 0.196605
v 0.041582 0.000000 0.195630
v 0.060905 -0.033987 0.187445
v 0.081347 0.000000 0.182709
v 0.098056 -0.033287 0.171105
v 0.117557 0.000000 0.161803
v 0.131169 -0.031215 0.147717
v 0.000626 -0.066517 0.188614
v -0.037929 -0.061371 0.186534
v 0.039157 -0.069139 0.183539
v 0.076203 -0.069139 0.171502
v 0.110358 -0.066517 0.152959
v 0.140328 -0.061371 0.128615
v -0.019581 -0.098067 0.173204
v 0.016781 -0.103361 0.170396
v 0.052573 -0.105146 0.161803
v 0.086580 -0.103361 0.147717
v 0.117648 -0.098067 0.128615
v 0.159727 -0.031942 -0.116048
v 0.148629 0.000000 -0.133826
v 0.173205 0.000000 -0.100000
v 0.132429 0.033287 -0.146132
v 0.148629 0.000000 -0.133826
v 0.159450 0.033987 -0.115847
v 0.173205 0.000000 -0.100000
v 0.179902 0.033287 -0.080791
v 0.111371 0.066517 -0.152224
v 0.139560 0.069139 -0.125470
v 0.162456 0.069139 -0.093957
v 0.179189 0.066517 -0.058880
v -0.061010 -0.031942 -0.187770
v -0.081347 0.000000 -0.182709
v -0.041582 0.000000 -0.195630
v -0.098056 0.033287 -0.171105
v -0.081347 0.000000 -0.182709
v -0.060905 0.033987 -0.187445
v -0.041582 0.000000 -0.195630
v -0.021244 0.033287 -0.196063
v -0.110358 0.066517 -0.152959
v -0.076203 0.069139 -0.171502
v -0.039157 0.069139 -0.183539
v -0.000626 0.066517 -0.188614
v -0.197433 -0.031942 0.000000
v -0.198904 0.000000 0.020906
v -0.198904 0.000000 -0.020906
v -0.193032 0.033287 0.040383
v -0.198904 0.000000 0.020906
v -0.197091 0.033987 0.000000
v -0.198904 0.000000 -0.020906
v -0.193032 0.033287 -0.040383
v -0.179576 0.066517 0.057690
v -0.186656 0.069139 0.019476
v -0.186656 0.069139 -0.019476
v -0.179576 0.066517 -0.057690
v -0.061010 -0.031942 0.187770
v -0.041582 0.000000 0.195630
v -0.081347 0.000000 0.182709
v -0.021244 0.033287 0.196063
v -0.041582 0.000000 0.195630
v -0.060905 0.033987 0.187445
v -0.081347 0.000000 0.182709
v -0.098056 0.033287 0.171105
v -0.000626 0.066517 0.188614
v -0.039157 0.069139 0.183539
v -0.076203 0.069139 0.171502
v -0.110358 0.066517 0.152959
v 0.159727 -0.031942 0.116048
v 0.173205 0.000000 0.100000
v 0.148629 0.000000 0.133826
v 0.179902 0.033287 0.080791
v 0.173205 0.000000 0.100000
v 0.159450 0.033987 0.115847
v 0.148629 0.000000 0.133826
v 0.132430 0.033287 0.146132
v 0.179189 0.066517 0.058880
v 0.162456 0.069139 0.093957
v 0.139560 0.069139 0.125470
v 0.111371 0.066517 0.152224
v -0.000000 -0.200000 0.000000
v 0.029688 -0.196605 -0.021569
v -0.011340 -0.196605 -0.034900
v 0.018456 -0.190874 -0.056802
v -0.022294 -0.186534 -0.068615
v 0.058367 -0.186534 -0.042406
v 0.007605 -0.177905 -0.091059
v -0.032492 -0.170130 -0.100000
v 0.047370 -0.177905 -0.078139
v 0.085065 -0.170130 -0.061803
v -0.002530 -0.157767 -0.122896
v -0.041586 -0.147950 -0.127990
v 0.036631 -0.161084 -0.112739
v 0.074283 -0.157767 -0.097938
v 0.108875 -0.147950 -0.079102
v -0.011665 -0.130870 -0.150788
v -0.049269 -0.120746 -0.151634
v 0.026382 -0.136030 -0.144221
v 0.063428 -0.136030 -0.132184
v 0.098068 -0.130870 -0.115133
v 0.128988 -0.120746 -0.093715
v -0.036696 -0.196605 0.000000
v -0.048319 -0.190874 -0.035106
v -0.072146 -0.186534 0.000000
v -0.084252 -0.177905 -0.035372
v -0.105146 -0.170130 0.000000
v -0.059676 -0.177905 -0.069198
v -0.117662 -0.157767 -0.035571
v -0.134577 -0.147950 0.000000
v -0.095901 -0.161084 -0.069676
v -0.070190 -0.157767 -0.100912
v -0.147012 -0.130870 -0.035502
v -0.159438 -0.120746 0.000000
v -0.129010 -0.136030 -0.069657
v -0.106115 -0.136030 -0.101171
v -0.079194 -0.130870 -0.128846
v -0.011340 -0.196605 0.034900
v -0.048319 -0.190874 0.035106
v -0.022294 -0.186534 0.068615
v -0.059676 -0.177905 0.069198
v -0.032492 -0.170130 0.100000
v -0.084252 -0.177905 0.035372
v -0.070190 -0.157767 0.100912
v -0.041586 -0.147950 0.127990
v -0.095901 -0.161084 0.069676
v -0.117662 -0.157767 0.035571
v -0.079194 -0.130870 0.128846
v -0.049269 -0.120746 0.151634
v -0.106115 -0.136030 0.101171
v -0.129010 -0.136030 0.069658
v -0.147012 -0.130870 0.035502
v 0.029688 -0.196605 0.021569
v 0.018456 -0.190874 0.056802
v 0.058367 -0.186534 0.042406
v 0.047370 -0.177905 0.078139
v 0.085065 -0.170130 0.061803
v 0.007605 -0.177905 0.091059
v 0.074283 -0.157767 0.097938
v 0.108875 -0.147950 0.079102
v 0.036631 -0.161084 0.112739
v -0.002530 -0.157767 0.122896
v 0.098068 -0.130870 0.115133
v 0.128988 -0.120746 0.093715
v 0.063428 -0.136030 0.132184
v 0.026382 -0.136030 0.144221
v -0.011665 -0.130870 0.150788
v 0.059725 -0.190874 -0.000000
v 0.088953 -0.177905 -0.020906
v 0.088953 -0.177905 0.020906
v 0.116099 -0.157767 -0.040383
v 0.118540 -0.161084 -0.000000
v 0.116099 -0.157767 0.040383
v 0.139803 -0.130870 -0.057690
v 0.145315 -0.136030 -0.019476
v 0.145315 -0.136030 0.019476
v 0.139803 -0.130870 0.057690
vt 0.752988 0.538983
vt 0.747205 0.503395
vt 0.765919 0.503395
vt 0.732064 0.525389
vt 0.736113 0.571648
vt 0.712718 0.553494
vt 0.716446 0.605421
vt 0.691232 0.584708
vt 0.694799 0.640430
vt 0.668468 0.617777
vt 0.671568 0.675651
vt 0.645528 0.651101
vt 0.646829 0.708166
vt 0.625667 0.679954
vt 0.618243 0.731235
vt 0.598981 0.678225
vt 0.582108 0.743231
vt 0.561792 0.670660
vt 0.536718 0.746379
vt 0.516052 0.653567
vt 0.549594 0.589308
vt 0.505488 0.554192
vt 0.545502 0.503394
vt 0.505488 0.452596
vt 0.549594 0.417481
vt 0.516052 0.353221
vt 0.561792 0.336128
vt 0.536718 0.260409
vt 0.582108 0.263557
vt 0.566584 0.178216
vt 0.610349 0.202499
vt 0.604344 0.110235
vt 0.645274 0.154163
vt 0.648347 0.059438
vt 0.684874 0.119831
vt 0.696671 0.028043
vt 0.727004 0.101066
vt 0.747203 0.017423
vt 0.769468 0.099123
vt 0.797736 0.028043
vt 0.810264 0.115330
vt 0.846059 0.059438
vt 0.848033 0.150165
vt 0.890063 0.110235
vt 0.881817 0.201644
vt 0.927822 0.178216
vt 0.910384 0.266339
vt 0.957688 0.260409
vt 0.932328 0.340655
vt 0.978355 0.353221
vt 0.946375 0.420807
vt 0.988919 0.452596
vt 0.951273 0.503394
vt 0.988919 0.554192
vt 0.946375 0.585982
vt 0.978355 0.653567
vt 0.932328 0.666134
vt 0.957688 0.746379
vt 0.910384 0.740449
vt 0.927822 0.828572
vt 0.881817 0.805144
vt 0.890063 0.896553
vt 0.848033 0.856624
vt 0.846059 0.947351
vt 0.810264 0.891459
vt 0.797736 0.978745
vt 0.769468 0.907666
vt 0.747203 0.989365
vt 0.727004 0.905723
vt 0.696671 0.978745
vt 0.684874 0.886957
vt 0.648347 0.947350
vt 0.645274 0.852625
vt 0.604344 0.896553
vt 0.610348 0.804290
vt 0.566584 0.828572
vt 0.776242 0.545578
vt 0.760377 0.584457
vt 0.742096 0.622086
vt 0.721743 0.660081
vt 0.699371 0.698853
vt 0.674454 0.737491
vt 0.645553 0.773491
vt 0.789832 0.503395
vt 0.802081 0.549786
vt 0.816391 0.503395
vt 0.829885 0.552668
vt 0.844528 0.503395
vt 0.859033 0.553860
vt 0.872882 0.503395
vt 0.888605 0.551091
vt 0.897432 0.503395
vt 0.918513 0.536157
vt 0.918513 0.470632
vt 0.908841 0.404350
vt 0.892308 0.338822
vt 0.870322 0.278315
vt 0.844263 0.226627
vt 0.815724 0.187751
vt 0.784558 0.167503
vt 0.750042 0.165414
vt 0.713765 0.176604
vt 0.678191 0.199715
vt 0.645553 0.233298
vt 0.618243 0.275554
vt 0.598981 0.328564
vt 0.587321 0.393556
vt 0.581433 0.465999
vt 0.581433 0.540790
vt 0.587321 0.613234
vt 0.618787 0.630993
vt 0.641898 0.593996
vt 0.665829 0.560705
vt 0.689171 0.530358
vt 0.711313 0.503395
vt 0.732064 0.481401
vt 0.752988 0.467807
vt 0.776242 0.461212
vt 0.802081 0.457003
vt 0.829885 0.454122
vt 0.859033 0.452929
vt 0.888605 0.455699
vt 0.874876 0.399508
vt 0.857062 0.343802
vt 0.836071 0.292712
vt 0.813586 0.249241
vt 0.793627 0.217715
vt 0.768213 0.219763
vt 0.737243 0.228506
vt 0.705242 0.245168
vt 0.674454 0.269298
vt 0.646829 0.298623
vt 0.625667 0.326835
vt 0.618787 0.375797
vt 0.613376 0.437391
vt 0.611412 0.503395
vt 0.613376 0.569398
vt 0.639453 0.533957
vt 0.664809 0.503395
vt 0.689171 0.476432
vt 0.712718 0.453296
vt 0.736113 0.435142
vt 0.760377 0.422333
vt 0.786228 0.413376
vt 0.813864 0.406557
vt 0.843361 0.401483
vt 0.786228 0.593414
vt 0.768584 0.634962
vt 0.749317 0.675850
vt 0.728444 0.717742
vt 0.705242 0.761622
vt 0.678191 0.807074
vt 0.813864 0.600232
vt 0.843361 0.605307
vt 0.874876 0.607282
vt 0.908841 0.602439
vt 0.796191 0.645397
vt 0.777279 0.688469
vt 0.757757 0.731646
vt 0.737243 0.778284
vt 0.713765 0.830185
vt 0.825392 0.654757
vt 0.857062 0.662988
vt 0.892308 0.667967
vt 0.805765 0.700457
vt 0.786041 0.742389
vt 0.768213 0.787026
vt 0.750042 0.841375
vt 0.836071 0.714078
vt 0.870322 0.728474
vt 0.813586 0.757549
vt 0.793627 0.789074
vt 0.784558 0.839286
vt 0.844263 0.780162
vt 0.815724 0.819038
vt 0.691232 0.422082
vt 0.665829 0.446085
vt 0.716446 0.401369
vt 0.742096 0.384705
vt 0.768584 0.371828
vt 0.796191 0.361392
vt 0.825392 0.352033
vt 0.668468 0.389013
vt 0.694799 0.366359
vt 0.721743 0.346709
vt 0.749317 0.330940
vt 0.777279 0.318321
vt 0.805765 0.306333
vt 0.641898 0.412793
vt 0.645528 0.355688
vt 0.671568 0.331138
vt 0.699371 0.307936
vt 0.728444 0.289048
vt 0.757757 0.275144
vt 0.786041 0.264401
vt 0.639453 0.472833
vt 0.452131 0.417481
vt 0.485673 0.353221
vt 0.439932 0.336128
vt 0.496237 0.452596
vt 0.456223 0.503394
vt 0.496237 0.554192
vt 0.452131 0.589308
vt 0.485673 0.653567
vt 0.439932 0.670660
vt 0.465006 0.746379
vt 0.419617 0.743231
vt 0.435140 0.828572
vt 0.391376 0.804290
vt 0.397381 0.896553
vt 0.356451 0.852625
vt 0.353377 0.947351
vt 0.316851 0.886957
vt 0.305054 0.978745
vt 0.274721 0.905723
vt 0.254521 0.989365
vt 0.232257 0.907666
vt 0.203989 0.978745
vt 0.191461 0.891459
vt 0.155665 0.947350
vt 0.153691 0.856624
vt 0.111662 0.896553
vt 0.119908 0.805144
vt 0.073902 0.828572
vt 0.091341 0.740449
vt 0.044036 0.746379
vt 0.069396 0.666133
vt 0.023370 0.653567
vt 0.055350 0.585982
vt 0.012806 0.554192
vt 0.050452 0.503394
vt 0.012806 0.452596
vt 0.055350 0.420807
vt 0.023370 0.353221
vt 0.069396 0.340655
vt 0.044036 0.260409
vt 0.091341 0.266339
vt 0.073902 0.178216
vt 0.119908 0.201644
vt 0.111662 0.110235
vt 0.153691 0.150165
vt 0.155665 0.059438
vt 0.191461 0.115330
vt 0.203989 0.028043
vt 0.232257 0.099123
vt 0.254521 0.017423
vt 0.274721 0.101066
vt 0.305054 0.028043
vt 0.316851 0.119831
vt 0.353377 0.059438
vt 0.356451 0.154163
vt 0.397381 0.110235
vt 0.391376 0.202499
vt 0.435140 0.178216
vt 0.419617 0.263558
vt 0.465006 0.260409
vt 0.414404 0.393556
vt 0.420292 0.465999
vt 0.420292 0.540790
vt 0.414404 0.613234
vt 0.402745 0.678225
vt 0.383483 0.731235
vt 0.356173 0.773491
vt 0.323534 0.807074
vt 0.287961 0.830185
vt 0.251683 0.841375
vt 0.217167 0.839286
vt 0.186001 0.819038
vt 0.157462 0.780162
vt 0.131403 0.728474
vt 0.109417 0.667967
vt 0.092884 0.602439
vt 0.083212 0.536157
vt 0.083212 0.470632
vt 0.092884 0.404350
vt 0.109417 0.338822
vt 0.131403 0.278315
vt 0.157463 0.226627
vt 0.186001 0.187751
vt 0.217167 0.167503
vt 0.251683 0.165414
vt 0.287961 0.176604
vt 0.323534 0.199715
vt 0.356173 0.233298
vt 0.383483 0.275554
vt 0.402745 0.328564
vt 0.382938 0.375797
vt 0.388350 0.437391
vt 0.390314 0.503395
vt 0.388350 0.569398
vt 0.382938 0.630993
vt 0.376059 0.679954
vt 0.354896 0.708166
vt 0.327271 0.737491
vt 0.296484 0.761622
vt 0.264482 0.778284
vt 0.233513 0.787026
vt 0.208098 0.789074
vt 0.188140 0.757549
vt 0.165655 0.714078
vt 0.144663 0.662988
vt 0.126849 0.607282
vt 0.113120 0.551091
vt 0.104293 0.503395
vt 0.113120 0.455699
vt 0.126849 0.399508
vt 0.144663 0.343802
vt 0.165655 0.292711
vt 0.188140 0.249241
vt 0.208098 0.217715
vt 0.233513 0.219763
vt 0.264482 0.228506
vt 0.296484 0.245168
vt 0.327271 0.269298
vt 0.354896 0.298623
vt 0.376059 0.326835
vt 0.356198 0.355688
vt 0.330158 0.331138
vt 0.302355 0.307936
vt 0.273282 0.289048
vt 0.243969 0.275144
vt 0.215685 0.264401
vt 0.195961 0.306333
vt 0.176333 0.352033
vt 0.158365 0.401483
vt 0.142693 0.452929
vt 0.128843 0.503395
vt 0.142693 0.553860
vt 0.158365 0.605307
vt 0.176333 0.654757
vt 0.195961 0.700457
vt 0.215685 0.742389
vt 0.243969 0.731646
vt 0.273282 0.717742
vt 0.302355 0.698853
vt 0.330158 0.675651
vt 0.356198 0.651101
vt 0.359828 0.593996
vt 0.362273 0.533957
vt 0.362273 0.472833
vt 0.359828 0.412793
vt 0.333258 0.389013
vt 0.306927 0.366360
vt 0.279983 0.346709
vt 0.252409 0.330940
vt 0.224447 0.318321
vt 0.205535 0.361392
vt 0.187862 0.406557
vt 0.171841 0.454122
vt 0.157198 0.503395
vt 0.171841 0.552668
vt 0.187862 0.600232
vt 0.205535 0.645397
vt 0.224447 0.688469
vt 0.252408 0.675850
vt 0.279983 0.660081
vt 0.306927 0.640430
vt 0.333258 0.617777
vt 0.335897 0.560705
vt 0.336917 0.503395
vt 0.335897 0.446085
vt 0.310495 0.422082
vt 0.285280 0.401369
vt 0.259630 0.384705
vt 0.233142 0.371828
vt 0.215498 0.413376
vt 0.199645 0.457003
vt 0.185335 0.503395
vt 0.199645 0.549786
vt 0.215498 0.593414
vt 0.233142 0.634962
vt 0.259630 0.622085
vt 0.285280 0.605421
vt 0.310495 0.584708
vt 0.312555 0.530358
vt 0.312555 0.476432
vt 0.289008 0.453296
vt 0.265613 0.435142
vt 0.241349 0.422333
vt 0.225485 0.461212
vt 0.211894 0.503395
vt 0.225484 0.545578
vt 0.241349 0.584457
vt 0.265613 0.571648
vt 0.289008 0.553494
vt 0.290414 0.503395
vt 0.269662 0.481401
vt 0.248739 0.467808
vt 0.235807 0.503395
vt 0.248739 0.538983
vt 0.269662 0.525389
vt 0.254522 0.503395
vn 0.0563 0.9833 -0.1732
vn 0.0000 1.0000 -0.0000
vn 0.1821 0.9833 0.0000
vn -0.1473 0.9833 -0.1070
vn -0.0925 0.9542 -0.2846
vn -0.2909 0.9331 -0.2114
vn -0.2367 0.8890 -0.3919
vn -0.4249 0.8510 -0.3087
vn -0.3709 0.7880 -0.4914
vn -0.5445 0.7396 -0.3956
vn -0.4896 0.6531 -0.5777
vn -0.6456 0.6026 -0.4691
vn -0.5876 0.4905 -0.6435
vn -0.7236 0.4472 -0.5257
vn -0.7010 0.3087 -0.6429
vn -0.8281 0.3087 -0.4680
vn -0.7987 0.1590 -0.5803
vn -0.9051 0.1571 -0.3951
vn -0.8636 0.0717 -0.4990
vn -0.9493 0.0709 -0.3062
vn -0.9651 0.1682 -0.2009
vn -0.9919 0.0741 -0.1035
vn -0.9851 0.1717 0.0000
vn -0.9919 0.0741 0.1035
vn -0.9651 0.1682 0.2009
vn -0.9493 0.0709 0.3062
vn -0.9051 0.1571 0.3951
vn -0.8636 0.0717 0.4990
vn -0.7987 0.1590 0.5803
vn -0.7414 0.0717 0.6672
vn -0.6555 0.1571 0.7387
vn -0.5845 0.0709 0.8083
vn -0.4893 0.1682 0.8557
vn -0.4050 0.0741 0.9113
vn -0.3044 0.1717 0.9369
vn -0.2080 0.0741 0.9753
vn -0.1071 0.1682 0.9799
vn -0.0022 0.0709 0.9975
vn 0.0961 0.1571 0.9829
vn 0.2077 0.0717 0.9756
vn 0.3051 0.1590 0.9390
vn 0.4054 0.0717 0.9113
vn 0.5000 0.1571 0.8517
vn 0.5881 0.0709 0.8057
vn 0.6626 0.1682 0.7298
vn 0.7416 0.0741 0.6668
vn 0.7970 0.1717 0.5791
vn 0.8633 0.0741 0.4993
vn 0.8989 0.1682 0.4047
vn 0.9480 0.0709 0.3103
vn 0.9645 0.1571 0.2123
vn 0.9920 0.0717 0.1039
vn 0.9873 0.1590 -0.0000
vn 0.9920 0.0717 -0.1039
vn 0.9645 0.1571 -0.2123
vn 0.9480 0.0709 -0.3103
vn 0.8989 0.1682 -0.4047
vn 0.8633 0.0741 -0.4993
vn 0.7970 0.1717 -0.5791
vn 0.7416 0.0741 -0.6668
vn 0.6626 0.1682 -0.7298
vn 0.5881 0.0709 -0.8057
vn 0.5000 0.1571 -0.8517
vn 0.4054 0.0717 -0.9113
vn 0.3051 0.1590 -0.9390
vn 0.2077 0.0717 -0.9756
vn 0.0961 0.1571 -0.9829
vn -0.0022 0.0709 -0.9975
vn -0.1071 0.1682 -0.9799
vn -0.2080 0.0741 -0.9753
vn -0.3044 0.1717 -0.9369
vn -0.4050 0.0741 -0.9113
vn -0.4893 0.1682 -0.8557
vn -0.5845 0.0709 -0.8083
vn -0.6555 0.1571 -0.7387
vn -0.7414 0.0717 -0.6672
vn 0.2421 0.9542 -0.1759
vn 0.1111 0.9331 -0.3420
vn -0.0389 0.8890 -0.4562
vn -0.1836 0.8043 -0.5651
vn -0.3172 0.6785 -0.6626
vn -0.4325 0.5168 -0.7388
vn -0.5504 0.3347 -0.7649
vn 0.3596 0.9331 0.0000
vn 0.4218 0.8890 -0.1779
vn 0.5252 0.8510 0.0000
vn 0.5889 0.7880 -0.1795
vn 0.6731 0.7396 0.0000
vn 0.7357 0.6531 -0.1796
vn 0.7981 0.6026 0.0000
vn 0.8537 0.4905 -0.1752
vn 0.8944 0.4472 -0.0000
vn 0.9450 0.3087 -0.1081
vn 0.9450 0.3087 0.1081
vn 0.8949 0.3347 0.2953
vn 0.8114 0.3478 0.4697
vn 0.6975 0.3478 0.6265
vn 0.5574 0.3347 0.7598
vn 0.3949 0.3087 0.8653
vn 0.1892 0.3087 0.9322
vn -0.0043 0.3347 0.9423
vn -0.1960 0.3478 0.9168
vn -0.3803 0.3478 0.8570
vn -0.5504 0.3347 0.7649
vn -0.7010 0.3087 0.6429
vn -0.8281 0.3087 0.4680
vn -0.8975 0.3347 0.2871
vn -0.9325 0.3478 0.0969
vn -0.9325 0.3478 -0.0969
vn -0.8975 0.3347 -0.2871
vn -0.7936 0.4905 -0.3600
vn -0.7007 0.6531 -0.2871
vn -0.5820 0.7880 -0.2009
vn -0.4459 0.8890 -0.1040
vn -0.2993 0.9542 0.0000
vn -0.1473 0.9833 0.1070
vn 0.0563 0.9833 0.1732
vn 0.2421 0.9542 0.1759
vn 0.4218 0.8890 0.1779
vn 0.5889 0.7880 0.1795
vn 0.7357 0.6531 0.1796
vn 0.8537 0.4905 0.1752
vn 0.7841 0.5168 0.3435
vn 0.6882 0.5257 0.5000
vn 0.5690 0.5168 0.6396
vn 0.4304 0.4905 0.7577
vn 0.2764 0.4472 0.8507
vn 0.0972 0.4905 0.8660
vn -0.0843 0.5168 0.8519
vn -0.2629 0.5257 0.8090
vn -0.4325 0.5168 0.7388
vn -0.5876 0.4905 0.6435
vn -0.7236 0.4472 0.5257
vn -0.7936 0.4905 0.3600
vn -0.8363 0.5168 0.1830
vn -0.8507 0.5257 -0.0000
vn -0.8363 0.5168 -0.1830
vn -0.7281 0.6785 -0.0969
vn -0.5942 0.8043 0.0000
vn -0.4459 0.8890 0.1040
vn -0.2909 0.9331 0.2114
vn -0.0925 0.9542 0.2846
vn 0.1111 0.9331 0.3420
vn 0.2996 0.8890 0.3462
vn 0.4807 0.8043 0.3492
vn 0.6460 0.6785 0.3496
vn 0.2996 0.8890 -0.3462
vn 0.1623 0.8510 -0.4995
vn 0.0113 0.7880 -0.6156
vn -0.1328 0.6785 -0.7224
vn -0.2629 0.5257 -0.8090
vn -0.3803 0.3478 -0.8570
vn 0.4807 0.8043 -0.3492
vn 0.6460 0.6785 -0.3496
vn 0.7841 0.5168 -0.3435
vn 0.8949 0.3347 -0.2953
vn 0.3527 0.7880 -0.5046
vn 0.2080 0.7396 -0.6401
vn 0.0565 0.6531 -0.7551
vn -0.0843 0.5168 -0.8519
vn -0.1960 0.3478 -0.9168
vn 0.5321 0.6785 -0.5064
vn 0.6882 0.5257 -0.5000
vn 0.8114 0.3478 -0.4697
vn 0.3981 0.6531 -0.6442
vn 0.2466 0.6026 -0.7590
vn 0.0972 0.4905 -0.8660
vn -0.0043 0.3347 -0.9423
vn 0.5690 0.5168 -0.6396
vn 0.6975 0.3478 -0.6265
vn 0.4304 0.4905 -0.7577
vn 0.2764 0.4472 -0.8507
vn 0.1892 0.3087 -0.9322
vn 0.5574 0.3347 -0.7598
vn 0.3949 0.3087 -0.8653
vn -0.4249 0.8510 0.3087
vn -0.5820 0.7880 0.2009
vn -0.2367 0.8890 0.3919
vn -0.0389 0.8890 0.4562
vn 0.1623 0.8510 0.4995
vn 0.3527 0.7880 0.5046
vn 0.5321 0.6785 0.5064
vn -0.5445 0.7396 0.3956
vn -0.3709 0.7880 0.4914
vn -0.1836 0.8043 0.5651
vn 0.0113 0.7880 0.6156
vn 0.2080 0.7396 0.6401
vn 0.3981 0.6531 0.6442
vn -0.7007 0.6531 0.2871
vn -0.6456 0.6026 0.4691
vn -0.4896 0.6531 0.5777
vn -0.3172 0.6785 0.6626
vn -0.1328 0.6785 0.7224
vn 0.0565 0.6531 0.7551
vn 0.2466 0.6026 0.7590
vn -0.7281 0.6785 0.0969
vn 0.9651 -0.1682 0.2009
vn 0.9493 -0.0709 0.3062
vn 0.9051 -0.1571 0.3951
vn 0.9919 -0.0741 0.1035
vn 0.9851 -0.1717 -0.0000
vn 0.9919 -0.0741 -0.1035
vn 0.9651 -0.1682 -0.2009
vn 0.9493 -0.0709 -0.3062
vn 0.9051 -0.1571 -0.3951
vn 0.8636 -0.0717 -0.4990
vn 0.7987 -0.1590 -0.5803
vn 0.7414 -0.0717 -0.6672
vn 0.6555 -0.1571 -0.7387
vn 0.5845 -0.0709 -0.8083
vn 0.4893 -0.1682 -0.8557
vn 0.4050 -0.0741 -0.9113
vn 0.3044 -0.1717 -0.9369
vn 0.2080 -0.0741 -0.9753
vn 0.1071 -0.1682 -0.9799
vn 0.0022 -0.0709 -0.9975
vn -0.0961 -0.1571 -0.9829
vn -0.2077 -0.0717 -0.9756
vn -0.3051 -0.1590 -0.9390
vn -0.4054 -0.0717 -0.9113
vn -0.5000 -0.1571 -0.8517
vn -0.5881 -0.0709 -0.8057
vn -0.6626 -0.1682 -0.7298
vn -0.7416 -0.0741 -0.6668
vn -0.7970 -0.1717 -0.5791
vn -0.8633 -0.0741 -0.4993
vn -0.8989 -0.1682 -0.4047
vn -0.9480 -0.0709 -0.3103
vn -0.9645 -0.1571 -0.2123
vn -0.9920 -0.0717 -0.1039
vn -0.9873 -0.1590 0.0000
vn -0.9920 -0.0717 0.1039
vn -0.9645 -0.1571 0.2123
vn -0.9480 -0.0709 0.3103
vn -0.8989 -0.1682 0.4047
vn -0.8633 -0.0741 0.4993
vn -0.7970 -0.1717 0.5791
vn -0.7416 -0.0741 0.6668
vn -0.6626 -0.1682 0.7298
vn -0.5881 -0.0709 0.8057
vn -0.5000 -0.1571 0.8517
vn -0.4054 -0.0717 0.9113
vn -0.3051 -0.1590 0.9390
vn -0.2077 -0.0717 0.9756
vn -0.0961 -0.1571 0.9829
vn 0.0022 -0.0709 0.9975
vn 0.1071 -0.1682 0.9799
vn 0.2080 -0.0741 0.9753
vn 0.3044 -0.1717 0.9369
vn 0.4050 -0.0741 0.9113
vn 0.4893 -0.1682 0.8557
vn 0.5845 -0.0709 0.8083
vn 0.6555 -0.1571 0.7387
vn 0.7414 -0.0717 0.6672
vn 0.7987 -0.1590 0.5803
vn 0.8636 -0.0717 0.4990
vn 0.8975 -0.3347 0.2871
vn 0.9325 -0.3478 0.0969
vn 0.9325 -0.3478 -0.0969
vn 0.8975 -0.3347 -0.2871
vn 0.8281 -0.3087 -0.4680
vn 0.7010 -0.3087 -0.6429
vn 0.5504 -0.3347 -0.7649
vn 0.3803 -0.3478 -0.8570
vn 0.1960 -0.3478 -0.9168
vn 0.0043 -0.3347 -0.9423
vn -0.1892 -0.3087 -0.9322
vn -0.3949 -0.3087 -0.8653
vn -0.5574 -0.3347 -0.7598
vn -0.6975 -0.3478 -0.6265
vn -0.8114 -0.3478 -0.4697
vn -0.8949 -0.3347 -0.2953
vn -0.9450 -0.3087 -0.1081
vn -0.9450 -0.3087 0.1081
vn -0.8949 -0.3347 0.2953
vn -0.8114 -0.3478 0.4697
vn -0.6975 -0.3478 0.6265
vn -0.5574 -0.3347 0.7598
vn -0.3949 -0.3087 0.8653
vn -0.1892 -0.3087 0.9322
vn 0.0043 -0.3347 0.9423
vn 0.1960 -0.3478 0.9168
vn 0.3803 -0.3478 0.8570
vn 0.5504 -0.3347 0.7649
vn 0.7010 -0.3087 0.6429
vn 0.8281 -0.3087 0.4680
vn 0.7936 -0.4905 0.3600
vn 0.8363 -0.5168 0.1830
vn 0.8507 -0.5257 -0.0000
vn 0.8363 -0.5168 -0.1830
vn 0.7936 -0.4905 -0.3600
vn 0.7236 -0.4472 -0.5257
vn 0.5876 -0.4905 -0.6435
vn 0.4325 -0.5168 -0.7388
vn 0.2629 -0.5257 -0.8090
vn 0.0843 -0.5168 -0.8519
vn -0.0972 -0.4905 -0.8660
vn -0.2764 -0.4472 -0.8507
vn -0.4304 -0.4905 -0.7577
vn -0.5690 -0.5168 -0.6396
vn -0.6882 -0.5257 -0.5000
vn -0.7841 -0.5168 -0.3435
vn -0.8537 -0.4905 -0.1752
vn -0.8944 -0.4472 -0.0000
vn -0.8537 -0.4905 0.1752
vn -0.7841 -0.5168 0.3435
vn -0.6882 -0.5257 0.5000
vn -0.5690 -0.5168 0.6396
vn -0.4304 -0.4905 0.7577
vn -0.2764 -0.4472 0.8507
vn -0.0972 -0.4905 0.8660
vn 0.0843 -0.5168 0.8519
vn 0.2629 -0.5257 0.8090
vn 0.4325 -0.5168 0.7388
vn 0.5876 -0.4905 0.6435
vn 0.7236 -0.4472 0.5257
vn 0.6456 -0.6026 0.4691
vn 0.4896 -0.6531 0.5777
vn 0.3172 -0.6785 0.6626
vn 0.1328 -0.6785 0.7224
vn -0.0565 -0.6531 0.7551
vn -0.2466 -0.6026 0.7590
vn -0.3981 -0.6531 0.6442
vn -0.5321 -0.6785 0.5064
vn -0.6460 -0.6785 0.3496
vn -0.7357 -0.6531 0.1796
vn -0.7981 -0.6026 -0.0000
vn -0.7357 -0.6531 -0.1796
vn -0.6460 -0.6785 -0.3496
vn -0.5321 -0.6785 -0.5064
vn -0.3981 -0.6531 -0.6442
vn -0.2466 -0.6026 -0.7590
vn -0.0565 -0.6531 -0.7551
vn 0.1328 -0.6785 -0.7224
vn 0.3172 -0.6785 -0.6626
vn 0.4896 -0.6531 -0.5777
vn 0.6456 -0.6026 -0.4691
vn 0.7007 -0.6531 -0.2871
vn 0.7281 -0.6785 -0.0969
vn 0.7281 -0.6785 0.0969
vn 0.7007 -0.6531 0.2871
vn 0.5445 -0.7396 0.3956
vn 0.3709 -0.7880 0.4914
vn 0.1836 -0.8043 0.5651
vn -0.0113 -0.7880 0.6156
vn -0.2080 -0.7396 0.6401
vn -0.3527 -0.7880 0.5046
vn -0.4807 -0.8043 0.3492
vn -0.5889 -0.7880 0.1795
vn -0.6731 -0.7396 -0.0000
vn -0.5889 -0.7880 -0.1795
vn -0.4807 -0.8043 -0.3492
vn -0.3527 -0.7880 -0.5046
vn -0.2080 -0.7396 -0.6401
vn -0.0113 -0.7880 -0.6156
vn 0.1836 -0.8043 -0.5651
vn 0.3709 -0.7880 -0.4914
vn 0.5445 -0.7396 -0.3956
vn 0.5820 -0.7880 -0.2009
vn 0.5942 -0.8043 -0.0000
vn 0.5820 -0.7880 0.2009
vn 0.4249 -0.8510 0.3087
vn 0.2367 -0.8890 0.3919
vn 0.0389 -0.8890 0.4562
vn -0.1623 -0.8510 0.4995
vn -0.2996 -0.8890 0.3462
vn -0.4218 -0.8890 0.1779
vn -0.5252 -0.8510 -0.0000
vn -0.4218 -0.8890 -0.1779
vn -0.2996 -0.8890 -0.3462
vn -0.1623 -0.8510 -0.4995
vn 0.0389 -0.8890 -0.4562
vn 0.2367 -0.8890 -0.3919
vn 0.4249 -0.8510 -0.3087
vn 0.4459 -0.8890 -0.1040
vn 0.4459 -0.8890 0.1040
vn 0.2909 -0.9331 0.2114
vn 0.0925 -0.9542 0.2846
vn -0.1111 -0.9331 0.3420
vn -0.2421 -0.9542 0.1759
vn -0.3596 -0.9331 -0.0000
vn -0.2421 -0.9542 -0.1759
vn -0.1111 -0.9331 -0.3420
vn 0.0925 -0.9542 -0.2846
vn 0.2909 -0.9331 -0.2114
vn 0.2993 -0.9542 -0.0000
vn 0.1473 -0.9833 0.1070
vn -0.0563 -0.9833 0.1732
vn -0.1821 -0.9833 -0.0000
vn -0.0563 -0.9833 -0.1732
vn 0.1473 -0.9833 -0.1070
vn -0.0000 -1.0000 -0.0000
usemtl marble01.skin
s 1
f 2/1/1 1/2/2 3/3/3
f 1/2/2 2/1/1 29/4/4
f 30/5/5 29/4/4 2/1/1
f 29/4/4 30/5/5 31/6/6
f 33/7/7 31/6/6 30/5/5
f 31/6/6 33/7/7 34/8/8
f 37/9/9 34/8/8 33/7/7
f 34/8/8 37/9/9 38/10/10
f 42/11/11 38/10/10 37/9/9
f 38/10/10 42/11/11 43/12/12
f 48/13/13 43/12/12 42/11/11
f 43/12/12 48/13/13 49/14/14
f 169/15/15 49/14/14 48/13/13
f 49/14/14 169/15/15 168/16/16
f 170/17/17 168/16/16 169/15/15
f 168/16/16 170/17/17 172/18/18
f 175/19/19 172/18/18 170/17/17
f 176/20/20 172/18/18 175/19/19
f 172/18/18 176/20/20 288/21/21
f 287/22/22 288/21/21 176/20/20
f 288/21/21 287/22/22 286/23/23
f 285/24/24 286/23/23 287/22/22
f 286/23/23 285/24/24 284/25/25
f 204/26/26 284/25/25 285/24/24
f 284/25/25 204/26/26 201/27/27
f 203/28/28 201/27/27 204/26/26
f 201/27/27 203/28/28 200/29/29
f 205/30/30 200/29/29 203/28/28
f 200/29/29 205/30/30 202/31/31
f 206/32/32 202/31/31 205/30/30
f 202/31/31 206/32/32 300/33/33
f 299/34/34 300/33/33 206/32/32
f 300/33/33 299/34/34 298/35/35
f 297/36/36 298/35/35 299/34/34
f 298/35/35 297/36/36 296/37/37
f 234/38/38 296/37/37 297/36/36
f 296/37/37 234/38/38 231/39/39
f 233/40/40 231/39/39 234/38/38
f 231/39/39 233/40/40 230/41/41
f 235/42/42 230/41/41 233/40/40
f 230/41/41 235/42/42 232/43/43
f 236/44/44 232/43/43 235/42/42
f 232/43/43 236/44/44 312/45/45
f 311/46/46 312/45/45 236/44/44
f 312/45/45 311/46/46 310/47/47
f 309/48/48 310/47/47 311/46/46
f 310/47/47 309/48/48 308/49/49
f 113/50/50 308/49/49 309/48/48
f 308/49/49 113/50/50 110/51/51
f 112/52/52 110/51/51 113/50/50
f 110/51/51 112/52/52 109/53/53
f 114/54/54 109/53/53 112/52/52
f 109/53/53 114/54/54 111/55/55
f 115/56/56 111/55/55 114/54/54
f 111/55/55 115/56/56 264/57/57
f 263/58/58 264/57/57 115/56/56
f 264/57/57 263/58/58 262/59/59
f 261/60/60 262/59/59 263/58/58
f 262/59/59 261/60/60 260/61/61
f 144/62/62 260/61/61 261/60/60
f 260/61/61 144/62/62 141/63/63
f 143/64/64 141/63/63 144/62/62
f 141/63/63 143/64/64 140/65/65
f 145/66/66 140/65/65 143/64/64
f 140/65/65 145/66/66 142/67/67
f 146/68/68 142/67/67 145/66/66
f 142/67/67 146/68/68 276/69/69
f 275/70/70 276/69/69 146/68/68
f 276/69/69 275/70/70 274/71/71
f 273/72/72 274/71/71 275/70/70
f 274/71/71 273/72/72 272/73/73
f 174/74/74 272/73/73 273/72/72
f 272/73/73 174/74/74 171/75/75
f 173/76/76 171/75/75 174/74/74
f 171/75/75 173/76/76 170/17/17
f 175/19/19 170/17/17 173/76/76
f 4/77/77 2/1/1 3/3/3
f 6/78/78 2/1/1 4/77/77
f 2/1/1 6/78/78 30/5/5
f 32/79/79 30/5/5 6/78/78
f 30/5/5 32/79/79 33/7/7
f 36/80/80 33/7/7 32/79/79
f 33/7/7 36/80/80 37/9/9
f 41/81/81 37/9/9 36/80/80
f 37/9/9 41/81/81 42/11/11
f 47/82/82 42/11/11 41/81/81
f 42/11/11 47/82/82 48/13/13
f 277/83/83 48/13/13 47/82/82
f 48/13/13 277/83/83 169/15/15
f 171/75/75 169/15/15 277/83/83
f 169/15/15 171/75/75 170/17/17
f 5/84/84 4/77/77 3/3/3
f 4/77/77 5/84/84 7/85/85
f 8/86/86 7/85/85 5/84/84
f 7/85/85 8/86/86 11/87/87
f 12/88/88 11/87/87 8/86/86
f 11/87/87 12/88/88 16/89/89
f 17/90/90 16/89/89 12/88/88
f 16/89/89 17/90/90 22/91/91
f 23/92/92 22/91/91 17/90/90
f 22/91/91 23/92/92 107/93/93
f 108/94/94 107/93/93 23/92/92
f 107/93/93 108/94/94 109/53/53
f 109/53/53 108/94/94 110/51/51
f 313/95/95 110/51/51 108/94/94
f 110/51/51 313/95/95 308/49/49
f 314/96/96 308/49/49 313/95/95
f 308/49/49 314/96/96 310/47/47
f 315/97/97 310/47/47 314/96/96
f 310/47/47 315/97/97 312/45/45
f 316/98/98 312/45/45 315/97/97
f 312/45/45 316/98/98 232/43/43
f 228/99/99 232/43/43 316/98/98
f 232/43/43 228/99/99 230/41/41
f 229/100/100 230/41/41 228/99/99
f 230/41/41 229/100/100 231/39/39
f 301/101/101 231/39/39 229/100/100
f 231/39/39 301/101/101 296/37/37
f 302/102/102 296/37/37 301/101/101
f 296/37/37 302/102/102 298/35/35
f 303/103/103 298/35/35 302/102/102
f 298/35/35 303/103/103 300/33/33
f 304/104/104 300/33/33 303/103/103
f 300/33/33 304/104/104 202/31/31
f 198/105/105 202/31/31 304/104/104
f 202/31/31 198/105/105 200/29/29
f 199/106/106 200/29/29 198/105/105
f 200/29/29 199/106/106 201/27/27
f 289/107/107 201/27/27 199/106/106
f 201/27/27 289/107/107 284/25/25
f 290/108/108 284/25/25 289/107/107
f 284/25/25 290/108/108 286/23/23
f 291/109/109 286/23/23 290/108/108
f 286/23/23 291/109/109 288/21/21
f 292/110/110 288/21/21 291/109/109
f 288/21/21 292/110/110 172/18/18
f 172/18/18 292/110/110 168/16/16
f 65/111/111 168/16/16 292/110/110
f 168/16/16 65/111/111 49/14/14
f 49/14/14 65/111/111 43/12/12
f 60/112/112 43/12/12 65/111/111
f 43/12/12 60/112/112 38/10/10
f 56/113/113 38/10/10 60/112/112
f 38/10/10 56/113/113 34/8/8
f 53/114/114 34/8/8 56/113/113
f 34/8/8 53/114/114 31/6/6
f 51/115/115 31/6/6 53/114/114
f 31/6/6 51/115/115 29/4/4
f 50/116/116 29/4/4 51/115/115
f 29/4/4 50/116/116 1/2/2
f 71/117/117 1/2/2 50/116/116
f 1/2/2 71/117/117 3/3/3
f 92/118/118 3/3/3 71/117/117
f 3/3/3 92/118/118 5/84/84
f 94/119/119 5/84/84 92/118/118
f 5/84/84 94/119/119 8/86/86
f 97/120/120 8/86/86 94/119/119
f 8/86/86 97/120/120 12/88/88
f 101/121/121 12/88/88 97/120/120
f 12/88/88 101/121/121 17/90/90
f 106/122/122 17/90/90 101/121/121
f 17/90/90 106/122/122 23/92/92
f 23/92/92 106/122/122 108/94/94
f 108/94/94 106/122/122 313/95/95
f 105/123/123 313/95/95 106/122/122
f 313/95/95 105/123/123 314/96/96
f 104/124/124 314/96/96 105/123/123
f 314/96/96 104/124/124 315/97/97
f 103/125/125 315/97/97 104/124/124
f 315/97/97 103/125/125 316/98/98
f 102/126/126 316/98/98 103/125/125
f 316/98/98 102/126/126 228/99/99
f 91/127/127 228/99/99 102/126/126
f 228/99/99 91/127/127 229/100/100
f 90/128/128 229/100/100 91/127/127
f 229/100/100 90/128/128 301/101/101
f 89/129/129 301/101/101 90/128/128
f 301/101/101 89/129/129 302/102/102
f 88/130/130 302/102/102 89/129/129
f 302/102/102 88/130/130 303/103/103
f 87/131/131 303/103/103 88/130/130
f 303/103/103 87/131/131 304/104/104
f 86/132/132 304/104/104 87/131/131
f 304/104/104 86/132/132 198/105/105
f 70/133/133 198/105/105 86/132/132
f 198/105/105 70/133/133 199/106/106
f 69/134/134 199/106/106 70/133/133
f 199/106/106 69/134/134 289/107/107
f 68/135/135 289/107/107 69/134/134
f 289/107/107 68/135/135 290/108/108
f 67/136/136 290/108/108 68/135/135
f 290/108/108 67/136/136 291/109/109
f 66/137/137 291/109/109 67/136/136
f 291/109/109 66/137/137 292/110/110
f 292/110/110 66/137/137 65/111/111
f 65/111/111 66/137/137 60/112/112
f 61/138/138 60/112/112 66/137/137
f 60/112/112 61/138/138 56/113/113
f 57/139/139 56/113/113 61/138/138
f 56/113/113 57/139/139 53/114/114
f 54/140/140 53/114/114 57/139/139
f 53/114/114 54/140/140 51/115/115
f 52/141/141 51/115/115 54/140/140
f 51/115/115 52/141/141 50/116/116
f 72/142/142 50/116/116 52/141/141
f 50/116/116 72/142/142 71/117/117
f 73/143/143 71/117/117 72/142/142
f 71/117/117 73/143/143 92/118/118
f 93/144/144 92/118/118 73/143/143
f 92/118/118 93/144/144 94/119/119
f 96/145/145 94/119/119 93/144/144
f 94/119/119 96/145/145 97/120/120
f 100/146/146 97/120/120 96/145/145
f 97/120/120 100/146/146 101/121/121
f 105/123/123 101/121/121 100/146/146
f 101/121/121 105/123/123 106/122/122
f 9/147/147 4/77/77 7/85/85
f 4/77/77 9/147/147 6/78/78
f 10/148/148 6/78/78 9/147/147
f 6/78/78 10/148/148 32/79/79
f 35/149/149 32/79/79 10/148/148
f 32/79/79 35/149/149 36/80/80
f 40/150/150 36/80/80 35/149/149
f 36/80/80 40/150/150 41/81/81
f 46/151/151 41/81/81 40/150/150
f 41/81/81 46/151/151 47/82/82
f 278/152/152 47/82/82 46/151/151
f 47/82/82 278/152/152 277/83/83
f 272/73/73 277/83/83 278/152/152
f 277/83/83 272/73/73 171/75/75
f 7/85/85 13/153/153 9/147/147
f 11/87/87 13/153/153 7/85/85
f 13/153/153 11/87/87 18/154/154
f 16/89/89 18/154/154 11/87/87
f 18/154/154 16/89/89 24/155/155
f 22/91/91 24/155/155 16/89/89
f 24/155/155 22/91/91 268/156/156
f 107/93/93 268/156/156 22/91/91
f 268/156/156 107/93/93 111/55/55
f 109/53/53 111/55/55 107/93/93
f 14/157/157 9/147/147 13/153/153
f 9/147/147 14/157/157 10/148/148
f 15/158/158 10/148/148 14/157/157
f 10/148/148 15/158/158 35/149/149
f 39/159/159 35/149/149 15/158/158
f 35/149/149 39/159/159 40/150/150
f 45/160/160 40/150/150 39/159/159
f 40/150/150 45/160/160 46/151/151
f 279/161/161 46/151/151 45/160/160
f 46/151/151 279/161/161 278/152/152
f 274/71/71 278/152/152 279/161/161
f 278/152/152 274/71/71 272/73/73
f 13/153/153 19/162/162 14/157/157
f 18/154/154 19/162/162 13/153/153
f 19/162/162 18/154/154 25/163/163
f 24/155/155 25/163/163 18/154/154
f 25/163/163 24/155/155 267/164/164
f 268/156/156 267/164/164 24/155/155
f 267/164/164 268/156/156 264/57/57
f 111/55/55 264/57/57 268/156/156
f 20/165/165 14/157/157 19/162/162
f 14/157/157 20/165/165 15/158/158
f 21/166/166 15/158/158 20/165/165
f 15/158/158 21/166/166 39/159/159
f 44/167/167 39/159/159 21/166/166
f 39/159/159 44/167/167 45/160/160
f 280/168/168 45/160/160 44/167/167
f 45/160/160 280/168/168 279/161/161
f 276/69/69 279/161/161 280/168/168
f 279/161/161 276/69/69 274/71/71
f 19/162/162 26/169/169 20/165/165
f 25/163/163 26/169/169 19/162/162
f 26/169/169 25/163/163 266/170/170
f 267/164/164 266/170/170 25/163/163
f 266/170/170 267/164/164 262/59/59
f 264/57/57 262/59/59 267/164/164
f 27/171/171 20/165/165 26/169/169
f 20/165/165 27/171/171 21/166/166
f 28/172/172 21/166/166 27/171/171
f 21/166/166 28/172/172 44/167/167
f 138/173/173 44/167/167 28/172/172
f 44/167/167 138/173/173 280/168/168
f 142/67/67 280/168/168 138/173/173
f 280/168/168 142/67/67 276/69/69
f 26/169/169 265/174/174 27/171/171
f 266/170/170 265/174/174 26/169/169
f 265/174/174 266/170/170 260/61/61
f 262/59/59 260/61/61 266/170/170
f 139/175/175 27/171/171 265/174/174
f 27/171/171 139/175/175 28/172/172
f 28/172/172 139/175/175 138/173/173
f 140/65/65 138/173/173 139/175/175
f 138/173/173 140/65/65 142/67/67
f 265/174/174 141/63/63 139/175/175
f 141/63/63 265/174/174 260/61/61
f 141/63/63 140/65/65 139/175/175
f 55/176/176 54/140/140 58/177/177
f 54/140/140 55/176/176 52/141/141
f 74/178/178 52/141/141 55/176/176
f 52/141/141 74/178/178 72/142/142
f 75/179/179 72/142/142 74/178/178
f 72/142/142 75/179/179 73/143/143
f 76/180/180 73/143/143 75/179/179
f 73/143/143 76/180/180 93/144/144
f 95/181/181 93/144/144 76/180/180
f 93/144/144 95/181/181 96/145/145
f 99/182/182 96/145/145 95/181/181
f 96/145/145 99/182/182 100/146/146
f 104/124/124 100/146/146 99/182/182
f 100/146/146 104/124/124 105/123/123
f 59/183/183 55/176/176 58/177/177
f 77/184/184 55/176/176 59/183/183
f 55/176/176 77/184/184 74/178/178
f 78/185/185 74/178/178 77/184/184
f 74/178/178 78/185/185 75/179/179
f 79/186/186 75/179/179 78/185/185
f 75/179/179 79/186/186 76/180/180
f 80/187/187 76/180/180 79/186/186
f 76/180/180 80/187/187 95/181/181
f 98/188/188 95/181/181 80/187/187
f 95/181/181 98/188/188 99/182/182
f 103/125/125 99/182/182 98/188/188
f 99/182/182 103/125/125 104/124/124
f 63/189/189 59/183/183 58/177/177
f 59/183/183 63/189/189 64/190/190
f 69/134/134 64/190/190 63/189/189
f 70/133/133 64/190/190 69/134/134
f 86/132/132 64/190/190 70/133/133
f 64/190/190 86/132/132 81/191/191
f 87/131/131 81/191/191 86/132/132
f 81/191/191 87/131/131 82/192/192
f 88/130/130 82/192/192 87/131/131
f 82/192/192 88/130/130 83/193/193
f 89/129/129 83/193/193 88/130/130
f 83/193/193 89/129/129 84/194/194
f 90/128/128 84/194/194 89/129/129
f 84/194/194 90/128/128 85/195/195
f 91/127/127 85/195/195 90/128/128
f 102/126/126 85/195/195 91/127/127
f 85/195/195 102/126/126 98/188/188
f 103/125/125 98/188/188 102/126/126
f 62/196/196 63/189/189 58/177/177
f 68/135/135 63/189/189 62/196/196
f 63/189/189 68/135/135 69/134/134
f 58/177/177 57/139/139 62/196/196
f 57/139/139 58/177/177 54/140/140
f 61/138/138 62/196/196 57/139/139
f 62/196/196 61/138/138 67/136/136
f 66/137/137 67/136/136 61/138/138
f 67/136/136 68/135/135 62/196/196
f 117/197/197 116/198/198 118/199/199
f 116/198/198 117/197/197 119/200/200
f 120/201/201 119/200/200 117/197/197
f 119/200/200 120/201/201 121/202/202
f 122/203/203 121/202/202 120/201/201
f 121/202/202 122/203/203 123/204/204
f 124/205/205 123/204/204 122/203/203
f 123/204/204 124/205/205 259/206/206
f 257/207/207 259/206/206 124/205/205
f 259/206/206 257/207/207 258/208/208
f 149/209/209 258/208/208 257/207/207
f 258/208/208 149/209/209 147/210/210
f 148/211/211 147/210/210 149/209/209
f 147/210/210 148/211/211 150/212/212
f 151/213/213 150/212/212 148/211/211
f 150/212/212 151/213/213 152/214/214
f 153/215/215 152/214/214 151/213/213
f 152/214/214 153/215/215 154/216/216
f 155/217/217 154/216/216 153/215/215
f 154/216/216 155/217/217 271/218/218
f 269/219/219 271/218/218 155/217/217
f 271/218/218 269/219/219 270/220/220
f 179/221/221 270/220/220 269/219/219
f 270/220/220 179/221/221 177/222/222
f 178/223/223 177/222/222 179/221/221
f 177/222/222 178/223/223 180/224/224
f 181/225/225 180/224/224 178/223/223
f 180/224/224 181/225/225 182/226/226
f 183/227/227 182/226/226 181/225/225
f 182/226/226 183/227/227 184/228/228
f 185/229/229 184/228/228 183/227/227
f 184/228/228 185/229/229 283/230/230
f 281/231/231 283/230/230 185/229/229
f 283/230/230 281/231/231 282/232/232
f 209/233/233 282/232/232 281/231/231
f 282/232/232 209/233/233 207/234/234
f 208/235/235 207/234/234 209/233/233
f 207/234/234 208/235/235 210/236/236
f 211/237/237 210/236/236 208/235/235
f 210/236/236 211/237/237 212/238/238
f 213/239/239 212/238/238 211/237/237
f 212/238/238 213/239/239 214/240/240
f 215/241/241 214/240/240 213/239/239
f 214/240/240 215/241/241 295/242/242
f 293/243/243 295/242/242 215/241/241
f 295/242/242 293/243/243 294/244/244
f 239/245/245 294/244/244 293/243/243
f 294/244/244 239/245/245 237/246/246
f 238/247/247 237/246/246 239/245/245
f 237/246/246 238/247/247 240/248/248
f 241/249/249 240/248/248 238/247/247
f 240/248/248 241/249/249 242/250/250
f 243/251/251 242/250/250 241/249/249
f 242/250/250 243/251/251 244/252/252
f 245/253/253 244/252/252 243/251/251
f 244/252/252 245/253/253 307/254/254
f 305/255/255 307/254/254 245/253/253
f 307/254/254 305/255/255 306/256/256
f 118/199/199 306/256/256 305/255/255
f 306/256/256 118/199/199 116/198/198
f 125/257/257 117/197/197 118/199/199
f 127/258/258 117/197/197 125/257/257
f 117/197/197 127/258/258 120/201/201
f 128/259/259 120/201/201 127/258/258
f 120/201/201 128/259/259 122/203/203
f 129/260/260 122/203/203 128/259/259
f 122/203/203 129/260/260 124/205/205
f 130/261/261 124/205/205 129/260/260
f 124/205/205 130/261/261 257/207/207
f 157/262/262 257/207/207 130/261/261
f 257/207/207 157/262/262 149/209/209
f 156/263/263 149/209/209 157/262/262
f 149/209/209 156/263/263 148/211/211
f 158/264/264 148/211/211 156/263/263
f 148/211/211 158/264/264 151/213/213
f 159/265/265 151/213/213 158/264/264
f 151/213/213 159/265/265 153/215/215
f 160/266/266 153/215/215 159/265/265
f 153/215/215 160/266/266 155/217/217
f 161/267/267 155/217/217 160/266/266
f 155/217/217 161/267/267 269/219/219
f 187/268/268 269/219/219 161/267/267
f 269/219/219 187/268/268 179/221/221
f 186/269/269 179/221/221 187/268/268
f 179/221/221 186/269/269 178/223/223
f 188/270/270 178/223/223 186/269/269
f 178/223/223 188/270/270 181/225/225
f 189/271/271 181/225/225 188/270/270
f 181/225/225 189/271/271 183/227/227
f 190/272/272 183/227/227 189/271/271
f 183/227/227 190/272/272 185/229/229
f 191/273/273 185/229/229 190/272/272
f 185/229/229 191/273/273 281/231/231
f 217/274/274 281/231/231 191/273/273
f 281/231/231 217/274/274 209/233/233
f 216/275/275 209/233/233 217/274/274
f 209/233/233 216/275/275 208/235/235
f 218/276/276 208/235/235 216/275/275
f 208/235/235 218/276/276 211/237/237
f 219/277/277 211/237/237 218/276/276
f 211/237/237 219/277/277 213/239/239
f 220/278/278 213/239/239 219/277/277
f 213/239/239 220/278/278 215/241/241
f 221/279/279 215/241/241 220/278/278
f 215/241/241 221/279/279 293/243/243
f 247/280/280 293/243/243 221/279/279
f 293/243/243 247/280/280 239/245/245
f 246/281/281 239/245/245 247/280/280
f 239/245/245 246/281/281 238/247/247
f 248/282/282 238/247/247 246/281/281
f 238/247/247 248/282/282 241/249/249
f 249/283/283 241/249/249 248/282/282
f 241/249/249 249/283/283 243/251/251
f 250/284/284 243/251/251 249/283/283
f 243/251/251 250/284/284 245/253/253
f 251/285/285 245/253/253 250/284/284
f 245/253/253 251/285/285 305/255/255
f 126/286/286 305/255/255 251/285/285
f 305/255/255 126/286/286 118/199/199
f 118/199/199 126/286/286 125/257/257
f 131/287/287 125/257/257 126/286/286
f 133/288/288 125/257/257 131/287/287
f 125/257/257 133/288/288 127/258/258
f 134/289/289 127/258/258 133/288/288
f 127/258/258 134/289/289 128/259/259
f 135/290/290 128/259/259 134/289/289
f 128/259/259 135/290/290 129/260/260
f 136/291/291 129/260/260 135/290/290
f 129/260/260 136/291/291 130/261/261
f 137/292/292 130/261/261 136/291/291
f 130/261/261 137/292/292 157/262/262
f 162/293/293 157/262/262 137/292/292
f 157/262/262 162/293/293 156/263/263
f 163/294/294 156/263/263 162/293/293
f 156/263/263 163/294/294 158/264/264
f 164/295/295 158/264/264 163/294/294
f 158/264/264 164/295/295 159/265/265
f 165/296/296 159/265/265 164/295/295
f 159/265/265 165/296/296 160/266/266
f 166/297/297 160/266/266 165/296/296
f 160/266/266 166/297/297 161/267/267
f 167/298/298 161/267/267 166/297/297
f 161/267/267 167/298/298 187/268/268
f 192/299/299 187/268/268 167/298/298
f 187/268/268 192/299/299 186/269/269
f 193/300/300 186/269/269 192/299/299
f 186/269/269 193/300/300 188/270/270
f 194/301/301 188/270/270 193/300/300
f 188/270/270 194/301/301 189/271/271
f 195/302/302 189/271/271 194/301/301
f 189/271/271 195/302/302 190/272/272
f 196/303/303 190/272/272 195/302/302
f 190/272/272 196/303/303 191/273/273
f 197/304/304 191/273/273 196/303/303
f 191/273/273 197/304/304 217/274/274
f 222/305/305 217/274/274 197/304/304
f 217/274/274 222/305/305 216/275/275
f 223/306/306 216/275/275 222/305/305
f 216/275/275 223/306/306 218/276/276
f 224/307/307 218/276/276 223/306/306
f 218/276/276 224/307/307 219/277/277
f 225/308/308 219/277/277 224/307/307
f 219/277/277 225/308/308 220/278/278
f 226/309/309 220/278/278 225/308/308
f 220/278/278 226/309/309 221/279/279
f 227/310/310 221/279/279 226/309/309
f 221/279/279 227/310/310 247/280/280
f 252/311/311 247/280/280 227/310/310
f 247/280/280 252/311/311 246/281/281
f 253/312/312 246/281/281 252/311/311
f 246/281/281 253/312/312 248/282/282
f 254/313/313 248/282/282 253/312/312
f 248/282/282 254/313/313 249/283/283
f 255/314/314 249/283/283 254/313/313
f 249/283/283 255/314/314 250/284/284
f 256/315/315 250/284/284 255/314/314
f 250/284/284 256/315/315 251/285/285
f 132/316/316 251/285/285 256/315/315
f 251/285/285 132/316/316 126/286/286
f 126/286/286 132/316/316 131/287/287
f 131/287/287 132/316/316 379/317/317
f 256/315/315 379/317/317 132/316/316
f 379/317/317 256/315/315 378/318/318
f 255/314/314 378/318/318 256/315/315
f 378/318/318 255/314/314 380/319/319
f 254/313/313 380/319/319 255/314/314
f 380/319/319 254/313/313 381/320/320
f 253/312/312 381/320/320 254/313/313
f 381/320/320 253/312/312 382/321/321
f 252/311/311 382/321/321 253/312/312
f 382/321/321 252/311/311 364/322/322
f 227/310/310 364/322/322 252/311/311
f 226/309/309 364/322/322 227/310/310
f 364/322/322 226/309/309 363/323/323
f 225/308/308 363/323/323 226/309/309
f 363/323/323 225/308/308 365/324/324
f 224/307/307 365/324/324 225/308/308
f 365/324/324 224/307/307 366/325/325
f 223/306/306 366/325/325 224/307/307
f 366/325/325 223/306/306 367/326/326
f 222/305/305 367/326/326 223/306/306
f 367/326/326 222/305/305 349/327/327
f 197/304/304 349/327/327 222/305/305
f 196/303/303 349/327/327 197/304/304
f 349/327/327 196/303/303 348/328/328
f 195/302/302 348/328/328 196/303/303
f 348/328/328 195/302/302 350/329/329
f 194/301/301 350/329/329 195/302/302
f 350/329/329 194/301/301 351/330/330
f 193/300/300 351/330/330 194/301/301
f 351/330/330 193/300/300 352/331/331
f 192/299/299 352/331/331 193/300/300
f 352/331/331 192/299/299 333/332/332
f 167/298/298 333/332/332 192/299/299
f 166/297/297 333/332/332 167/298/298
f 333/332/332 166/297/297 332/333/333
f 165/296/296 332/333/333 166/297/297
f 332/333/333 165/296/296 334/334/334
f 164/295/295 334/334/334 165/296/296
f 334/334/334 164/295/295 335/335/335
f 163/294/294 335/335/335 164/295/295
f 335/335/335 163/294/294 336/336/336
f 162/293/293 336/336/336 163/294/294
f 336/336/336 162/293/293 337/337/337
f 137/292/292 337/337/337 162/293/293
f 136/291/291 337/337/337 137/292/292
f 337/337/337 136/291/291 389/338/338
f 135/290/290 389/338/338 136/291/291
f 389/338/338 135/290/290 390/339/339
f 134/289/289 390/339/339 135/290/290
f 390/339/339 134/289/289 391/340/340
f 133/288/288 391/340/340 134/289/289
f 391/340/340 133/288/288 392/341/341
f 131/287/287 392/341/341 133/288/288
f 379/317/317 392/341/341 131/287/287
f 392/341/341 379/317/317 375/342/342
f 378/318/318 375/342/342 379/317/317
f 375/342/342 378/318/318 374/343/343
f 380/319/319 374/343/343 378/318/318
f 374/343/343 380/319/319 376/344/344
f 381/320/320 376/344/344 380/319/319
f 376/344/344 381/320/320 377/345/345
f 382/321/321 377/345/345 381/320/320
f 377/345/345 382/321/321 360/346/346
f 364/322/322 360/346/346 382/321/321
f 363/323/323 360/346/346 364/322/322
f 360/346/346 363/323/323 359/347/347
f 365/324/324 359/347/347 363/323/323
f 359/347/347 365/324/324 361/348/348
f 366/325/325 361/348/348 365/324/324
f 361/348/348 366/325/325 362/349/349
f 367/326/326 362/349/349 366/325/325
f 362/349/349 367/326/326 345/350/350
f 349/327/327 345/350/350 367/326/326
f 348/328/328 345/350/350 349/327/327
f 345/350/350 348/328/328 344/351/351
f 350/329/329 344/351/351 348/328/328
f 344/351/351 350/329/329 346/352/352
f 351/330/330 346/352/352 350/329/329
f 346/352/352 351/330/330 347/353/353
f 352/331/331 347/353/353 351/330/330
f 347/353/353 352/331/331 328/354/354
f 333/332/332 328/354/354 352/331/331
f 332/333/333 328/354/354 333/332/332
f 328/354/354 332/333/333 327/355/355
f 334/334/334 327/355/355 332/333/333
f 327/355/355 334/334/334 329/356/356
f 335/335/335 329/356/356 334/334/334
f 329/356/356 335/335/335 330/357/357
f 336/336/336 330/357/357 335/335/335
f 330/357/357 336/336/336 331/358/358
f 337/337/337 331/358/358 336/336/336
f 389/338/338 331/358/358 337/337/337
f 331/358/358 389/338/338 386/359/359
f 390/339/339 386/359/359 389/338/338
f 386/359/359 390/339/339 387/360/360
f 391/340/340 387/360/360 390/339/339
f 387/360/360 391/340/340 388/361/361
f 392/341/341 388/361/361 391/340/340
f 375/342/342 388/361/361 392/341/341
f 388/361/361 375/342/342 372/362/362
f 374/343/343 372/362/362 375/342/342
f 372/362/362 374/343/343 371/363/363
f 376/344/344 371/363/363 374/343/343
f 371/363/363 376/344/344 373/364/364
f 377/345/345 373/364/364 376/344/344
f 373/364/364 377/345/345 357/365/365
f 360/346/346 357/365/365 377/345/345
f 359/347/347 357/365/365 360/346/346
f 357/365/365 359/347/347 356/366/366
f 361/348/348 356/366/366 359/347/347
f 356/366/366 361/348/348 358/367/367
f 362/349/349 358/367/367 361/348/348
f 358/367/367 362/349/349 342/368/368
f 345/350/350 342/368/368 362/349/349
f 344/351/351 342/368/368 345/350/350
f 342/368/368 344/351/351 341/369/369
f 346/352/352 341/369/369 344/351/351
f 341/369/369 346/352/352 343/370/370
f 347/353/353 343/370/370 346/352/352
f 343/370/370 347/353/353 324/371/371
f 328/354/354 324/371/371 347/353/353
f 327/355/355 324/371/371 328/354/354
f 324/371/371 327/355/355 323/372/372
f 329/356/356 323/372/372 327/355/355
f 323/372/372 329/356/356 325/373/373
f 330/357/357 325/373/373 329/356/356
f 325/373/373 330/357/357 326/374/374
f 331/358/358 326/374/374 330/357/357
f 386/359/359 326/374/374 331/358/358
f 326/374/374 386/359/359 384/375/375
f 387/360/360 384/375/375 386/359/359
f 384/375/375 387/360/360 385/376/376
f 388/361/361 385/376/376 387/360/360
f 372/362/362 385/376/376 388/361/361
f 385/376/376 372/362/362 370/377/377
f 371/363/363 370/377/377 372/362/362
f 370/377/377 371/363/363 369/378/378
f 373/364/364 369/378/378 371/363/363
f 369/378/378 373/364/364 355/379/379
f 357/365/365 355/379/379 373/364/364
f 356/366/366 355/379/379 357/365/365
f 355/379/379 356/366/366 354/380/380
f 358/367/367 354/380/380 356/366/366
f 354/380/380 358/367/367 340/381/381
f 342/368/368 340/381/381 358/367/367
f 341/369/369 340/381/381 342/368/368
f 340/381/381 341/369/369 339/382/382
f 343/370/370 339/382/382 341/369/369
f 339/382/382 343/370/370 321/383/383
f 324/371/371 321/383/383 343/370/370
f 323/372/372 321/383/383 324/371/371
f 321/383/383 323/372/372 320/384/384
f 325/373/373 320/384/384 323/372/372
f 320/384/384 325/373/373 322/385/385
f 326/374/374 322/385/385 325/373/373
f 384/375/375 322/385/385 326/374/374
f 322/385/385 384/375/375 383/386/386
f 385/376/376 383/386/386 384/375/375
f 370/377/377 383/386/386 385/376/376
f 383/386/386 370/377/377 368/387/387
f 369/378/378 368/387/387 370/377/377
f 368/387/387 369/378/378 353/388/388
f 355/379/379 353/388/388 369/378/378
f 354/380/380 353/388/388 355/379/379
f 353/388/388 354/380/380 338/389/389
f 340/381/381 338/389/389 354/380/380
f 339/382/382 338/389/389 340/381/381
f 338/389/389 339/382/382 319/390/390
f 321/383/383 319/390/390 339/382/382
f 320/384/384 319/390/390 321/383/383
f 319/390/390 320/384/384 318/391/391
f 322/385/385 318/391/391 320/384/384
f 383/386/386 318/391/391 322/385/385
f 368/387/387 318/391/391 383/386/386
f 318/391/391 368/387/387 317/392/392
f 353/388/388 317/392/392 368/387/387
f 338/389/389 317/392/392 353/388/388
f 319/390/390 317/392/392 338/389/389
f 317/392/392 319/390/390 318/391/391
f 59/183/183 81/191/191 77/184/184
f 81/191/191 59/183/183 64/190/190
f 82/192/192 77/184/184 81/191/191
f 77/184/184 82/192/192 78/185/185
f 83/193/193 78/185/185 82/192/192
f 78/185/185 83/193/193 79/186/186
f 84/194/194 79/186/186 83/193/193
f 79/186/186 84/194/194 80/187/187
f 85/195/195 80/187/187 84/194/194
f 80/187/187 85/195/195 98/188/188
