# Created by Metasequoia

mtllib Model (2).mtl

v 0.641318 0.600232 -0.358446
v 0.641318 0.536214 -0.305911
v 0.679554 0.574496 -0.267724
v 0.641318 0.483679 -0.241893
v 0.691401 0.551663 -0.180671
v 0.641318 0.444646 -0.168863
v 0.700309 0.536702 -0.093993
v 0.641318 0.420609 -0.089617
v 0.641318 0.673273 -0.397479
v 0.691352 0.661624 -0.290633
v 0.724775 0.649733 -0.192670
v 0.736468 0.641402 -0.099047
v 0.702274 0.531478 -0.007202
v 0.641318 0.412486 -0.007202
v 0.700309 0.536702 0.079589
v 0.641318 0.420609 0.075213
v 0.641318 0.752519 -0.421526
v 0.700479 0.748351 -0.305636
v 0.734705 0.743370 -0.201159
v 0.758055 0.739740 -0.102796
v 0.762070 0.738425 -0.007202
v 0.741310 0.638485 -0.007202
v 0.736468 0.641402 0.084643
v 0.641318 0.834924 -0.429640
v 0.702073 0.835150 -0.310886
v 0.742942 0.835301 -0.204012
v 0.764137 0.835362 -0.104118
v 0.641318 0.917338 -0.421526
v 0.700479 0.921925 -0.305636
v 0.734705 0.927154 -0.201159
v 0.758055 0.930927 -0.102796
v 0.762070 0.932290 -0.007202
v 0.770096 0.835375 -0.007202
v 0.641318 0.996585 -0.397479
v 0.691353 1.008560 -0.290633
v 0.724775 1.020670 -0.192670
v 0.736468 1.029150 -0.099047
v 0.641318 1.069620 -0.358446
v 0.679554 1.095540 -0.267724
v 0.691400 1.118520 -0.180671
v 0.700309 1.133570 -0.093993
v 0.702274 1.138820 -0.007202
v 0.741310 1.032110 -0.007202
v 0.641318 1.133630 -0.305911
v 0.641318 1.186170 -0.241893
v 0.641318 1.225210 -0.168863
v 0.641318 1.249250 -0.089617
v 0.641318 1.257360 -0.007202
v 0.641318 1.249250 0.075213
v 0.700309 1.133570 0.079589
v 0.736468 1.029150 0.084643
v 0.758055 0.930926 0.088392
v 0.764137 0.835362 0.089714
v 0.641318 1.225210 0.154459
v 0.691401 1.118520 0.166267
v 0.724775 1.020670 0.178266
v 0.734706 0.927154 0.186755
v 0.742942 0.835301 0.189608
v 0.734706 0.743370 0.186755
v 0.758055 0.739740 0.088392
v 0.641318 1.186170 0.227489
v 0.679554 1.095540 0.253320
v 0.691353 1.008560 0.276229
v 0.700479 0.921925 0.291232
v 0.702073 0.835150 0.296482
v 0.641318 1.133630 0.291507
v 0.641318 1.069620 0.344042
v 0.641318 0.996585 0.383075
v 0.641318 0.917338 0.407122
v 0.641318 0.834924 0.415236
v 0.641318 0.752519 0.407122
v 0.700479 0.749329 0.291232
v 0.691353 0.661624 0.276229
v 0.724775 0.649733 0.178266
v 0.641318 0.673272 0.383075
v 0.641318 0.600232 0.344042
v 0.679554 0.574496 0.253320
v 0.691401 0.551663 0.166267
v 0.641318 0.444646 0.154459
v 0.641318 0.483679 0.227489
v 0.641318 0.536214 0.291507
v 0.510242 0.834924 -0.468358
v 0.510242 0.744960 -0.459495
v 0.556445 0.724229 -0.563719
v 0.556445 0.617784 -0.531439
v 0.510242 0.658451 -0.433261
v 0.556445 0.519678 -0.478999
v 0.510242 0.578718 -0.390642
v 0.556445 0.433702 -0.408434
v 0.510242 0.508844 -0.333292
v 0.556444 0.834923 -0.574625
v 0.652100 0.748343 -0.442520
v 0.652100 0.665082 -0.417254
v 0.652100 0.588341 -0.376244
v 0.652100 0.521078 -0.321047
v 0.510242 0.924896 -0.459495
v 0.556445 0.945628 -0.563719
v 0.652100 0.834923 -0.451045
v 0.510242 1.011410 -0.433261
v 0.556445 1.052070 -0.531439
v 0.652100 0.921514 -0.442520
v 0.510242 1.091130 -0.390642
v 0.556445 1.150170 -0.478999
v 0.652101 1.004780 -0.417254
v 0.510242 1.161010 -0.333292
v 0.556445 1.236160 -0.408434
v 0.652100 1.081520 -0.376243
v 0.510242 1.218360 -0.263408
v 0.556445 1.306720 -0.322447
v 0.652100 1.203960 -0.253785
v 0.652100 1.148770 -0.321047
v 0.510242 1.260980 -0.183675
v 0.556445 1.359160 -0.224341
v 0.652100 1.244990 -0.177054
v 0.510242 1.287230 -0.097166
v 0.556445 1.391450 -0.117896
v 0.652100 1.270240 -0.093793
v 0.510242 1.296090 -0.007202
v 0.556445 1.402360 -0.007202
v 0.652101 1.278770 -0.007202
v 0.510242 1.287230 0.082762
v 0.556445 1.391450 0.103492
v 0.652101 1.270240 0.079389
v 0.510242 1.260980 0.169271
v 0.556445 1.359160 0.209937
v 0.652100 1.244990 0.162650
v 0.510242 1.218360 0.249004
v 0.556445 1.306720 0.308043
v 0.652100 1.203970 0.239381
v 0.510242 1.161010 0.318888
v 0.556445 1.236160 0.394030
v 0.652100 1.148770 0.306643
v 0.510242 1.091130 0.376238
v 0.556445 1.150170 0.464595
v 0.652100 1.081520 0.361840
v 0.510242 1.011410 0.418856
v 0.556445 1.052070 0.517035
v 0.652101 1.004780 0.402850
v 0.510242 0.924896 0.445091
v 0.556445 0.945628 0.549315
v 0.652100 0.921514 0.428116
v 0.510242 0.834925 0.453954
v 0.556445 0.834924 0.560221
v 0.652100 0.834924 0.436641
v 0.510242 0.744960 0.445091
v 0.556445 0.724229 0.549315
v 0.652100 0.748343 0.428116
v 0.510242 0.658451 0.418856
v 0.556445 0.617784 0.517035
v 0.652100 0.665082 0.402850
v 0.510242 0.578718 0.376238
v 0.556445 0.519678 0.464596
v 0.652101 0.588341 0.361840
v 0.510242 0.508844 0.318888
v 0.556445 0.433702 0.394030
v 0.652100 0.521078 0.306643
v 0.510242 0.451485 0.249004
v 0.556445 0.363126 0.308043
v 0.652100 0.465882 0.239381
v 0.510242 0.408874 0.169271
v 0.556445 0.310696 0.209937
v 0.652100 0.424871 0.162650
v 0.510242 0.382631 0.082762
v 0.556445 0.278406 0.103493
v 0.652100 0.399616 0.079389
v 0.510242 0.373768 -0.007202
v 0.556445 0.267501 -0.007202
v 0.652100 0.391081 -0.007202
v 0.510242 0.382631 -0.097166
v 0.556445 0.278406 -0.117897
v 0.652100 0.399616 -0.093793
v 0.510242 0.408874 -0.183675
v 0.556445 0.310696 -0.224341
v 0.652100 0.424871 -0.177054
v 0.510242 0.451493 -0.263408
v 0.556445 0.363136 -0.322447
v 0.652100 0.465881 -0.253785
v -0.642236 0.483679 0.227489
v -0.680472 0.574496 0.253320
v -0.642236 0.536214 0.291507
v -0.642236 0.600232 0.344042
v -0.692271 0.661624 0.276229
v -0.692319 0.551663 0.166267
v -0.642236 0.444646 0.154459
v -0.642236 0.673272 0.383075
v -0.701397 0.749329 0.291232
v -0.735624 0.743370 0.186755
v -0.725693 0.649733 0.178266
v -0.737386 0.641402 0.084643
v -0.701227 0.536702 0.079589
v -0.642236 0.420609 0.075213
v -0.642236 0.752519 0.407123
v -0.702991 0.835150 0.296482
v -0.743860 0.835301 0.189608
v -0.765055 0.835362 0.089714
v -0.758973 0.739739 0.088392
v -0.642236 0.834924 0.415236
v -0.701397 0.921925 0.291232
v -0.735624 0.927154 0.186755
v -0.758973 0.930926 0.088392
v -0.762988 0.932290 -0.007202
v -0.771014 0.835375 -0.007202
v -0.762988 0.738425 -0.007202
v -0.642236 0.917338 0.407123
v -0.692271 1.008560 0.276229
v -0.725693 1.020670 0.178266
v -0.737386 1.029150 0.084643
v -0.642236 0.996585 0.383075
v -0.680472 1.095540 0.253320
v -0.692319 1.118520 0.166267
v -0.701227 1.133570 0.079589
v -0.703192 1.138820 -0.007202
v -0.742228 1.032110 -0.007202
v -0.642236 1.069620 0.344042
v -0.642236 1.133630 0.291507
v -0.642236 1.186170 0.227489
v -0.642236 1.225210 0.154459
v -0.642236 1.249250 0.075213
v -0.642236 1.257360 -0.007202
v -0.701227 1.133570 -0.093993
v -0.737386 1.029150 -0.099047
v -0.758973 0.930927 -0.102796
v -0.765055 0.835362 -0.104118
v -0.642236 1.249250 -0.089617
v -0.692318 1.118520 -0.180671
v -0.725693 1.020670 -0.192670
v -0.735623 0.927154 -0.201159
v -0.743860 0.835301 -0.204012
v -0.735623 0.743370 -0.201159
v -0.758973 0.739740 -0.102796
v -0.642236 1.225210 -0.168863
v -0.680472 1.095540 -0.267724
v -0.692271 1.008560 -0.290633
v -0.701397 0.921925 -0.305636
v -0.702991 0.835150 -0.310886
v -0.642236 1.186170 -0.241893
v -0.642236 1.133630 -0.305911
v -0.642236 1.069620 -0.358446
v -0.642236 0.996585 -0.397479
v -0.642236 0.917338 -0.421526
v -0.642236 0.834924 -0.429640
v -0.701397 0.748351 -0.305636
v -0.692270 0.661624 -0.290633
v -0.725693 0.649733 -0.192670
v -0.737386 0.641402 -0.099047
v -0.642236 0.752519 -0.421526
v -0.642236 0.673273 -0.397479
v -0.680472 0.574496 -0.267724
v -0.692319 0.551663 -0.180671
v -0.701227 0.536702 -0.093993
v -0.703192 0.531478 -0.007202
v -0.742228 0.638485 -0.007202
v -0.642236 0.600232 -0.358446
v -0.642236 0.536214 -0.305911
v -0.642236 0.483679 -0.241893
v -0.642236 0.444646 -0.168863
v -0.642236 0.420609 -0.089617
v -0.642236 0.412486 -0.007202
v -0.557363 0.724229 -0.563719
v -0.511160 0.744961 -0.459495
v -0.511160 0.834924 -0.468358
v -0.557363 0.617784 -0.531439
v -0.653018 0.665081 -0.417254
v -0.653018 0.748343 -0.442520
v -0.557363 0.834923 -0.574625
v -0.511160 0.924896 -0.459495
v -0.557363 0.945628 -0.563719
v -0.511161 1.011410 -0.433261
v -0.511161 0.658451 -0.433261
v -0.557363 0.519678 -0.478999
v -0.653018 0.588341 -0.376244
v -0.653018 0.834923 -0.451045
v -0.511160 0.578718 -0.390642
v -0.557363 0.433701 -0.408434
v -0.653018 0.521078 -0.321047
v -0.511160 0.508844 -0.333292
v -0.557363 0.363136 -0.322447
v -0.653018 0.465881 -0.253785
v -0.511161 0.451493 -0.263408
v -0.557363 0.310696 -0.224341
v -0.653018 0.424871 -0.177054
v -0.511161 0.408874 -0.183675
v -0.557363 0.278406 -0.117897
v -0.653018 0.399616 -0.093793
v -0.511160 0.382631 -0.097166
v -0.557363 0.267501 -0.007202
v -0.653018 0.391081 -0.007202
v -0.511161 0.373768 -0.007202
v -0.557363 0.278406 0.103493
v -0.653018 0.399616 0.079389
v -0.511161 0.382631 0.082762
v -0.557363 0.310696 0.209937
v -0.653018 0.424871 0.162650
v -0.511160 0.408874 0.169271
v -0.557363 0.363126 0.308043
v -0.653018 0.465882 0.239381
v -0.511160 0.451485 0.249004
v -0.557363 0.433702 0.394030
v -0.653018 0.521078 0.306643
v -0.511161 0.508844 0.318888
v -0.557363 0.519678 0.464596
v -0.653018 0.588341 0.361840
v -0.511160 0.578718 0.376238
v -0.557363 0.617784 0.517035
v -0.653018 0.665082 0.402850
v -0.511161 0.658451 0.418856
v -0.557363 0.724229 0.549315
v -0.653018 0.748343 0.428116
v -0.511161 0.744961 0.445091
v -0.557363 0.834924 0.560221
v -0.653018 0.834924 0.436641
v -0.511161 0.834925 0.453954
v -0.557363 0.945628 0.549315
v -0.653018 0.921514 0.428116
v -0.511161 0.924896 0.445091
v -0.557363 1.052070 0.517035
v -0.653018 1.004780 0.402850
v -0.511161 1.011410 0.418856
v -0.557363 1.150170 0.464595
v -0.653018 1.081520 0.361840
v -0.511161 1.091130 0.376238
v -0.557363 1.236160 0.394030
v -0.653018 1.148770 0.306643
v -0.511161 1.161010 0.318888
v -0.557363 1.306720 0.308043
v -0.653018 1.203970 0.239381
v -0.511161 1.218360 0.249004
v -0.557363 1.359160 0.209937
v -0.653018 1.244990 0.162650
v -0.511161 1.260980 0.169271
v -0.557363 1.391450 0.103492
v -0.653018 1.270240 0.079389
v -0.511161 1.287230 0.082762
v -0.557363 1.402360 -0.007202
v -0.653018 1.278770 -0.007202
v -0.511161 1.296090 -0.007202
v -0.557363 1.391450 -0.117896
v -0.653018 1.270240 -0.093793
v -0.511161 1.287230 -0.097166
v -0.557363 1.359160 -0.224341
v -0.653018 1.244990 -0.177054
v -0.511161 1.260980 -0.183675
v -0.557363 1.306720 -0.322447
v -0.653018 1.203960 -0.253785
v -0.511160 1.218360 -0.263408
v -0.557363 1.236160 -0.408434
v -0.653018 1.148770 -0.321047
v -0.653018 1.081520 -0.376243
v -0.511161 1.161010 -0.333292
v -0.557363 1.150170 -0.478999
v -0.511160 1.091130 -0.390642
v -0.557363 1.052070 -0.531439
v -0.653018 1.004780 -0.417254
v -0.653018 0.921514 -0.442520
v 0.459384 1.433530 -0.063676
v 0.552548 1.355520 -0.078166
v 0.552548 1.362510 -0.007202
v 0.459384 1.437760 0.022367
v 0.459384 1.420410 0.139320
v 0.552548 1.352380 0.095639
v 0.459384 1.380590 0.250642
v 0.552549 1.322380 0.194528
v 0.459384 1.336300 0.324535
v 0.552549 1.288770 0.257414
v 0.354919 1.497010 -0.024201
v 0.354919 1.494630 0.073921
v 0.354919 1.466140 0.200979
v 0.354919 1.413410 0.320037
v 0.354919 1.356910 0.400300
v 0.241725 1.539320 0.053715
v 0.241725 1.524470 0.159622
v 0.241725 1.478680 0.290853
v 0.241725 1.408170 0.410631
v 0.241725 1.336980 0.490438
v 0.241725 1.290060 0.533645
v 0.354919 1.315240 0.448635
v 0.122591 1.557370 0.124219
v 0.122591 1.531250 0.233446
v 0.122591 1.470930 0.364582
v 0.122591 1.386180 0.481431
v 0.122591 1.303780 0.557735
v 0.122591 1.252970 0.596263
v 0.002021 1.561350 0.151081
v 0.002021 1.530920 0.261060
v 0.002021 1.465220 0.391602
v 0.002021 1.375320 0.506818
v 0.002021 1.288910 0.581357
v 0.002021 1.236790 0.618070
v -0.118550 1.531250 0.233446
v -0.118550 1.470930 0.364582
v -0.118550 1.386180 0.481431
v -0.118550 1.303780 0.557735
v -0.118550 1.557370 0.124219
v -0.237684 1.524470 0.159622
v -0.237684 1.478680 0.290853
v -0.237684 1.408170 0.410631
v -0.237684 1.336980 0.490438
v -0.118550 1.252970 0.596263
v -0.237684 1.539320 0.053715
v -0.350878 1.494630 0.073921
v -0.350878 1.466140 0.200979
v -0.350878 1.413410 0.320037
v -0.350878 1.356910 0.400300
v -0.237684 1.290060 0.533645
v -0.350878 1.497010 -0.024201
v -0.455343 1.437760 0.022367
v -0.455343 1.420410 0.139320
v -0.455343 1.380590 0.250642
v -0.455343 1.336300 0.324535
v -0.350878 1.315240 0.448635
v -0.455343 1.433530 -0.063676
v -0.548508 1.362510 -0.007202
v -0.548508 1.352380 0.095639
v -0.548508 1.322380 0.194528
v -0.548508 1.288770 0.257414
v -0.455343 1.298260 0.375830
v -0.548508 1.355520 -0.078166
v -0.548508 1.253350 0.310425
v -0.548508 1.208110 0.365546
v -0.455343 1.240410 0.439663
v -0.350878 1.244180 0.516335
v -0.237684 1.204670 0.598030
v -0.455343 1.145450 0.510098
v -0.350878 1.134180 0.586030
v -0.237684 1.079500 0.658449
v -0.118550 1.021880 0.705100
v -0.118550 1.157260 0.655025
v -0.548508 1.128230 0.431103
v -0.455343 1.038570 0.560653
v -0.350878 1.012710 0.632928
v -0.237684 0.944947 0.693287
v -0.118550 0.879337 0.727802
v 0.002021 0.853700 0.738068
v 0.002021 0.998743 0.720171
v -0.548508 1.037090 0.479817
v -0.455343 0.955007 0.581588
v -0.350878 0.916007 0.649736
v -0.237684 0.838178 0.699381
v -0.118550 0.767112 0.723488
v 0.002021 0.739898 0.729680
v -0.548508 0.968858 0.500516
v -0.455343 0.891838 0.590961
v -0.350878 0.852363 0.654449
v -0.237684 0.774447 0.696755
v -0.118550 0.703943 0.714806
v 0.002021 0.677081 0.718784
v -0.548508 0.906327 0.512954
v -0.548508 0.835364 0.519943
v -0.455343 0.805795 0.595192
v -0.350878 0.754241 0.652068
v -0.237684 0.668540 0.681902
v -0.118550 0.594716 0.688681
v -0.455343 0.688842 0.577849
v -0.350878 0.627183 0.623574
v -0.237684 0.537308 0.636115
v -0.118550 0.463580 0.628362
v 0.002021 0.436560 0.622655
v 0.002021 0.567102 0.688355
v -0.548508 0.732523 0.509815
v -0.455343 0.577520 0.538022
v -0.350878 0.508125 0.570840
v -0.237684 0.417530 0.565606
v -0.118550 0.346731 0.543618
v 0.002021 0.321343 0.532750
v -0.548508 0.633634 0.479817
v -0.546693 0.571875 0.444516
v -0.453705 0.504908 0.492008
v -0.349613 0.429409 0.512552
v -0.236823 0.339585 0.492703
v -0.118114 0.272519 0.459625
v 0.002021 0.248979 0.444816
v -0.455343 0.452332 0.455697
v -0.350878 0.379527 0.472676
v -0.237684 0.294516 0.447497
v -0.118550 0.231899 0.410406
v 0.002021 0.210091 0.394225
v -0.548508 0.517737 0.410783
v -0.548508 0.462616 0.365546
v -0.455343 0.388498 0.397846
v -0.350878 0.311827 0.401610
v -0.237684 0.230132 0.362106
v -0.118550 0.173137 0.314698
v -0.455343 0.318064 0.302885
v -0.350878 0.242132 0.291618
v -0.237684 0.169713 0.236935
v -0.118550 0.123062 0.179318
v 0.002021 0.107991 0.156177
v 0.002021 0.153840 0.294941
v -0.548508 0.397058 0.285665
v -0.455343 0.267509 0.196006
v -0.350878 0.195234 0.170142
v -0.237684 0.134874 0.102382
v -0.118550 0.100360 0.036771
v 0.002021 0.090093 0.011134
v -0.548508 0.348345 0.194528
v -0.455343 0.246573 0.112442
v -0.350878 0.178426 0.073441
v -0.237684 0.128781 -0.004388
v -0.118550 0.104674 -0.075454
v 0.002021 0.098481 -0.102668
v -0.548508 0.327646 0.126292
v -0.455343 0.237221 0.049272
v -0.350878 0.173734 0.009797
v -0.237684 0.131427 -0.068119
v -0.118550 0.113377 -0.138623
v -0.548508 0.315228 0.063762
v 0.002021 0.109399 -0.165485
v 0.122591 0.113377 -0.138623
v 0.122591 0.104674 -0.075454
v 0.122591 0.100360 0.036771
v 0.122591 0.123062 0.179318
v 0.122591 0.173137 0.314698
v 0.241725 0.131427 -0.068119
v 0.241725 0.128781 -0.004388
v 0.241725 0.134874 0.102382
v 0.241725 0.169713 0.236935
v 0.241725 0.230132 0.362106
v 0.122591 0.231899 0.410406
v 0.354919 0.173734 0.009797
v 0.354919 0.178426 0.073441
v 0.354919 0.195234 0.170142
v 0.354919 0.242132 0.291618
v 0.354919 0.311827 0.401610
v 0.241725 0.294516 0.447497
v 0.459384 0.237221 0.049272
v 0.459384 0.246573 0.112442
v 0.459384 0.267509 0.196006
v 0.459384 0.318064 0.302885
v 0.459384 0.388498 0.397846
v 0.354919 0.379527 0.472676
v 0.552548 0.315228 0.063762
v 0.552549 0.327646 0.126292
v 0.552549 0.348345 0.194528
v 0.552549 0.397058 0.285665
v 0.552549 0.462616 0.365546
v 0.459384 0.452332 0.455697
v 0.457747 0.504908 0.492008
v 0.353654 0.429409 0.512552
v 0.240865 0.339585 0.492703
v 0.552548 0.517737 0.410783
v 0.550734 0.571875 0.444516
v 0.459384 0.577520 0.538022
v 0.354919 0.508125 0.570840
v 0.241725 0.417530 0.565606
v 0.122591 0.346731 0.543618
v 0.122155 0.272519 0.459625
v 0.552549 0.633634 0.479817
v 0.552549 0.732523 0.509815
v 0.459384 0.688842 0.577849
v 0.354919 0.627183 0.623574
v 0.241725 0.537308 0.636115
v 0.122591 0.463580 0.628362
v 0.552549 0.835364 0.519943
v 0.459384 0.805795 0.595192
v 0.354919 0.754241 0.652068
v 0.241725 0.668540 0.681902
v 0.122591 0.594716 0.688681
v 0.459384 0.891838 0.590961
v 0.354919 0.852363 0.654449
v 0.241725 0.774447 0.696755
v 0.122591 0.703943 0.714806
v 0.552548 0.906327 0.512954
v 0.459384 0.955007 0.581588
v 0.354919 0.916007 0.649736
v 0.241725 0.838178 0.699381
v 0.122591 0.767112 0.723488
v 0.122591 0.879337 0.727802
v 0.552549 0.968858 0.500516
v 0.552549 1.037090 0.479817
v 0.459384 1.038570 0.560653
v 0.354919 1.012710 0.632928
v 0.241725 0.944947 0.693287
v 0.241725 1.079500 0.658449
v 0.122591 1.021880 0.705100
v 0.552549 1.128230 0.431103
v 0.459384 1.145450 0.510098
v 0.354919 1.134180 0.586030
v 0.354919 1.244180 0.516335
v 0.241725 1.204670 0.598030
v 0.122591 1.157260 0.655025
v 0.002021 1.137510 0.674321
v 0.552549 1.208110 0.365546
v 0.459384 1.240410 0.439663
v 0.459384 1.298260 0.375830
v 0.552549 1.253350 0.310425
v 0.552548 0.308239 -0.007202
v 0.459384 0.232991 -0.036771
v 0.459384 0.250334 -0.153724
v 0.552548 0.318368 -0.110043
v 0.459384 0.290161 -0.265046
v 0.552549 0.348365 -0.208932
v 0.459384 0.334446 -0.338939
v 0.552549 0.381979 -0.271819
v 0.354919 0.176115 -0.088325
v 0.354919 0.204609 -0.215383
v 0.354919 0.257343 -0.334441
v 0.354919 0.313836 -0.414704
v 0.241725 0.146281 -0.174026
v 0.241725 0.192068 -0.305258
v 0.241725 0.262576 -0.425036
v 0.241725 0.333766 -0.504842
v 0.241725 0.380686 -0.548050
v 0.354919 0.355506 -0.463039
v 0.122591 0.139502 -0.247850
v 0.122591 0.199821 -0.378986
v 0.122591 0.284565 -0.495835
v 0.122591 0.366970 -0.572140
v 0.122591 0.417776 -0.610667
v 0.002021 0.139827 -0.275464
v 0.002021 0.205528 -0.406006
v 0.002021 0.295433 -0.521222
v 0.002021 0.381835 -0.595761
v 0.002021 0.433958 -0.632475
v -0.118550 0.139502 -0.247850
v -0.118550 0.199821 -0.378986
v -0.118550 0.284565 -0.495835
v -0.118550 0.366970 -0.572140
v -0.237684 0.146281 -0.174026
v -0.237684 0.192068 -0.305258
v -0.237684 0.262576 -0.425036
v -0.237684 0.333766 -0.504842
v -0.118550 0.417776 -0.610667
v -0.350878 0.176115 -0.088325
v -0.350878 0.204609 -0.215383
v -0.350878 0.257343 -0.334441
v -0.350878 0.313836 -0.414704
v -0.237684 0.380686 -0.548050
v -0.455343 0.232991 -0.036771
v -0.455343 0.250334 -0.153724
v -0.455343 0.290161 -0.265046
v -0.455343 0.334446 -0.338939
v -0.350878 0.355506 -0.463039
v -0.548508 0.308239 -0.007202
v -0.548508 0.318368 -0.110043
v -0.548508 0.348365 -0.208932
v -0.548508 0.381979 -0.271819
v -0.455343 0.372486 -0.390234
v -0.548508 0.417400 -0.324829
v -0.548508 0.462636 -0.379950
v -0.455343 0.430336 -0.454067
v -0.350878 0.426573 -0.530739
v -0.237684 0.466077 -0.612434
v -0.455343 0.525298 -0.524502
v -0.350878 0.536565 -0.600434
v -0.237684 0.591247 -0.672853
v -0.118550 0.648864 -0.719504
v -0.118550 0.513485 -0.669429
v -0.548508 0.542518 -0.445507
v -0.455343 0.632176 -0.575057
v -0.350878 0.658040 -0.647332
v -0.237684 0.725801 -0.707691
v -0.118550 0.791411 -0.742206
v 0.002021 0.817048 -0.752473
v 0.002021 0.672005 -0.734575
v -0.548508 0.633654 -0.494221
v -0.455343 0.715741 -0.595992
v -0.350878 0.754741 -0.664140
v -0.237684 0.832571 -0.713785
v -0.118550 0.903637 -0.737892
v 0.002021 0.930850 -0.744084
v -0.548508 0.701891 -0.514920
v -0.455343 0.778910 -0.605365
v -0.350878 0.818385 -0.668853
v -0.237684 0.896301 -0.711159
v -0.118550 0.966805 -0.729210
v 0.002021 0.993668 -0.733188
v -0.548508 0.764421 -0.527358
v -0.548508 0.835384 -0.534347
v -0.455343 0.864953 -0.609596
v -0.350878 0.916507 -0.666472
v -0.237684 1.002210 -0.696306
v -0.118550 1.076030 -0.703085
v -0.455343 0.981906 -0.592253
v -0.350878 1.043570 -0.637978
v -0.237684 1.133440 -0.650519
v -0.118550 1.207170 -0.642766
v 0.002021 1.234190 -0.637059
v 0.002021 1.103650 -0.702759
v -0.548508 0.938225 -0.524219
v -0.455343 1.093230 -0.552426
v -0.350878 1.162620 -0.585244
v -0.237684 1.253220 -0.580010
v -0.118550 1.324020 -0.558022
v 0.002021 1.349400 -0.547154
v -0.548508 1.037110 -0.494221
v -0.546693 1.098870 -0.458921
v -0.453705 1.165840 -0.506412
v -0.349613 1.241340 -0.526956
v -0.236823 1.331160 -0.507108
v -0.118114 1.398230 -0.474029
v 0.002021 1.421770 -0.459220
v -0.455343 1.218420 -0.470101
v -0.350878 1.291220 -0.487080
v -0.237684 1.376230 -0.461901
v -0.118550 1.438850 -0.424810
v 0.002021 1.460660 -0.408629
v -0.548508 1.153010 -0.425187
v -0.548508 1.208130 -0.379950
v -0.455343 1.282250 -0.412250
v -0.350878 1.358920 -0.416014
v -0.237684 1.440620 -0.376510
v -0.118550 1.497610 -0.329102
v -0.455343 1.352680 -0.317289
v -0.350878 1.428620 -0.306022
v -0.237684 1.501040 -0.251339
v -0.118550 1.547690 -0.193723
v 0.002021 1.562760 -0.170581
v 0.002021 1.516910 -0.309345
v -0.548508 1.273690 -0.300069
v -0.455343 1.403240 -0.210410
v -0.350878 1.475510 -0.184546
v -0.237684 1.535870 -0.116786
v -0.118550 1.570390 -0.051175
v 0.002021 1.580660 -0.025538
v -0.548508 1.322400 -0.208932
v -0.455343 1.424170 -0.126846
v -0.350878 1.492320 -0.087845
v -0.237684 1.541970 -0.010016
v -0.118550 1.566070 0.061050
v 0.002021 1.572270 0.088264
v -0.548508 1.343100 -0.140696
v 0.552549 0.417400 -0.324829
v 0.459384 0.372486 -0.390234
v 0.552549 0.462636 -0.379950
v 0.459384 0.430336 -0.454067
v 0.459384 0.525298 -0.524502
v 0.552549 0.542518 -0.445507
v 0.459384 0.632176 -0.575057
v 0.552549 0.633654 -0.494221
v 0.354919 0.426573 -0.530739
v 0.354919 0.536565 -0.600434
v 0.354919 0.658040 -0.647332
v 0.354919 0.754741 -0.664140
v 0.459384 0.715741 -0.595992
v 0.552549 0.701891 -0.514920
v 0.552548 0.764421 -0.527358
v 0.241725 0.466077 -0.612434
v 0.241725 0.591247 -0.672853
v 0.241725 0.725801 -0.707691
v 0.241725 0.832571 -0.713785
v 0.241725 0.896301 -0.711159
v 0.354919 0.818385 -0.668853
v 0.122591 0.513485 -0.669429
v 0.122591 0.648864 -0.719504
v 0.122591 0.791411 -0.742206
v 0.122591 0.903637 -0.737892
v 0.122591 0.966805 -0.729210
v 0.002021 0.533241 -0.688725
v 0.122591 1.076030 -0.703085
v 0.241725 1.002210 -0.696306
v 0.354919 0.916507 -0.666472
v 0.122591 1.207170 -0.642766
v 0.241725 1.133440 -0.650519
v 0.354919 1.043570 -0.637978
v 0.459384 0.864953 -0.609596
v 0.459384 0.778910 -0.605365
v 0.122591 1.324020 -0.558022
v 0.241725 1.253220 -0.580010
v 0.354919 1.162620 -0.585244
v 0.459384 0.981906 -0.592253
v 0.552549 0.835384 -0.534347
v 0.122155 1.398230 -0.474029
v 0.240865 1.331160 -0.507108
v 0.353654 1.241340 -0.526956
v 0.457747 1.165840 -0.506412
v 0.459384 1.093230 -0.552426
v 0.552549 0.938225 -0.524219
v 0.122591 1.438850 -0.424810
v 0.241725 1.376230 -0.461901
v 0.354919 1.291220 -0.487080
v 0.459384 1.218420 -0.470101
v 0.552548 1.153010 -0.425187
v 0.550734 1.098870 -0.458921
v 0.122591 1.497610 -0.329102
v 0.241725 1.440620 -0.376510
v 0.354919 1.358920 -0.416014
v 0.459384 1.282250 -0.412250
v 0.552549 1.208130 -0.379950
v 0.122591 1.547690 -0.193723
v 0.241725 1.501040 -0.251339
v 0.354919 1.428620 -0.306022
v 0.459384 1.352680 -0.317289
v 0.552549 1.273690 -0.300069
v 0.459384 1.403240 -0.210410
v 0.552549 1.322400 -0.208932
v 0.122591 1.570390 -0.051175
v 0.241725 1.535870 -0.116786
v 0.354919 1.475510 -0.184546
v 0.354919 1.492320 -0.087845
v 0.459384 1.424170 -0.126846
v 0.552549 1.343100 -0.140696
v 0.122591 1.566070 0.061050
v 0.241725 1.541970 -0.010016
v 0.552549 1.037110 -0.494221
# 794 vertices

vt -0.95199 0.54172
vt -0.95388 0.54024
vt -0.95252 0.53888
vt -0.95524 0.53823
vt -0.95297 0.53610
vt -0.95631 0.53579
vt -0.95327 0.53333
vt -0.95708 0.53317
vt -0.94971 0.54291
vt -0.94989 0.53943
vt -0.94997 0.53629
vt -0.95012 0.53347
vt -0.95338 0.53067
vt -0.95734 0.53053
vt -0.95319 0.52805
vt -0.95700 0.52795
vt -0.94725 0.54379
vt -0.94728 0.53984
vt -0.94730 0.53657
vt -0.94734 0.53364
vt -0.94738 0.53088
vt -0.95016 0.53077
vt -0.95006 0.52810
vt -0.94476 0.54413
vt -0.94476 0.54004
vt -0.94472 0.53666
vt -0.94471 0.53375
vt -0.94231 0.54388
vt -0.94227 0.53992
vt -0.94218 0.53667
vt -0.94211 0.53377
vt -0.94208 0.53105
vt -0.94472 0.53097
vt -0.93993 0.54312
vt -0.93975 0.53962
vt -0.93961 0.53652
vt -0.93942 0.53376
vt -0.93772 0.54204
vt -0.93721 0.53920
vt -0.93672 0.53649
vt -0.93639 0.53381
vt -0.93625 0.53123
vt -0.93937 0.53112
vt -0.93589 0.54065
vt -0.93452 0.53875
vt -0.93342 0.53644
vt -0.93266 0.53393
vt -0.93238 0.53139
vt -0.93267 0.52884
vt -0.93641 0.52866
vt -0.93945 0.52850
vt -0.94213 0.52834
vt -0.94470 0.52821
vt -0.93342 0.52632
vt -0.93674 0.52602
vt -0.93962 0.52580
vt -0.94217 0.52551
vt -0.94467 0.52536
vt -0.94721 0.52528
vt -0.94731 0.52814
vt -0.93449 0.52397
vt -0.93720 0.52333
vt -0.93973 0.52276
vt -0.94222 0.52233
vt -0.94467 0.52207
vt -0.93586 0.52197
vt -0.93772 0.52047
vt -0.93992 0.51927
vt -0.94229 0.51841
vt -0.94469 0.51801
vt -0.94712 0.51820
vt -0.94713 0.52211
vt -0.94970 0.52233
vt -0.94984 0.52537
vt -0.94953 0.51889
vt -0.95178 0.51993
vt -0.95231 0.52273
vt -0.95281 0.52539
vt -0.95616 0.52546
vt -0.95504 0.52317
vt -0.95365 0.52129
vt 0.15815 0.23848
vt 0.15815 0.12040
vt 0.13887 0.09319
vt 0.13887 -0.04653
vt 0.15815 0.00685
vt 0.13887 -0.17530
vt 0.15815 -0.09781
vt 0.13887 -0.28815
vt 0.15815 -0.18952
vt 0.13887 0.23848
vt 0.09897 0.12484
vt 0.09897 0.01555
vt 0.09897 -0.08518
vt 0.09897 -0.17346
vt 0.15815 0.35658
vt 0.13887 0.38379
vt 0.09897 0.23848
vt 0.10346 0.13032
vt 0.10346 0.02630
vt 0.10346 -0.06957
vt 0.10346 -0.15360
vt 0.15815 0.47013
vt 0.13887 0.52351
vt 0.09897 0.35214
vt 0.10346 0.23848
vt 0.15815 0.57477
vt 0.13887 0.65226
vt 0.09897 0.46143
vt 0.10346 0.34666
vt 0.15815 0.66650
vt 0.13887 0.76512
vt 0.09897 0.56215
vt 0.10346 0.45067
vt 0.15815 0.74177
vt 0.13887 0.85775
vt 0.09897 0.72287
vt 0.09897 0.65043
vt 0.10346 0.54654
vt 0.15815 0.79771
vt 0.13887 0.92658
vt 0.09897 0.77672
vt 0.10346 0.69951
vt 0.10346 0.63056
vt 0.15815 0.83216
vt 0.13887 0.96896
vt 0.09897 0.80987
vt 0.10346 0.75076
vt 0.15815 0.84380
vt 0.13887 0.98328
vt 0.09897 0.82106
vt 0.10346 0.78231
vt 0.10346 0.79296
vt 0.09897 0.46142
vt 0.15815 -0.26481
vt 0.13887 -0.38079
vt 0.09897 -0.24591
vt 0.15815 -0.32074
vt 0.13887 -0.44961
vt 0.09897 -0.29974
vt 0.10346 -0.22255
vt 0.15815 -0.35519
vt 0.13887 -0.49199
vt 0.09897 -0.33289
vt 0.10346 -0.27379
vt 0.15815 -0.36682
vt 0.13887 -0.50630
vt 0.09897 -0.34410
vt 0.10346 -0.30534
vt 0.10346 -0.31600
vt 0.15815 -0.26480
vt 0.13887 -0.38078
vt 0.13928 0.09417
vt 0.15856 0.12138
vt 0.15856 0.23947
vt 0.13928 -0.04554
vt 0.09937 0.01654
vt 0.09937 0.12582
vt 0.13928 0.23947
vt 0.15856 0.35756
vt 0.13928 0.38478
vt 0.15856 0.47111
vt 0.15856 0.00783
vt 0.13928 -0.17432
vt 0.09937 -0.08419
vt 0.10387 -0.06858
vt 0.10387 0.02729
vt 0.10387 0.13130
vt 0.09937 0.23947
vt 0.15856 -0.09682
vt 0.13928 -0.28716
vt 0.09937 -0.17248
vt 0.10387 -0.15261
vt 0.15856 -0.18854
vt 0.13928 -0.37979
vt 0.09937 -0.24493
vt 0.10387 -0.22157
vt 0.15856 -0.26381
vt 0.13928 -0.44862
vt 0.09937 -0.29876
vt 0.10387 -0.27280
vt 0.15856 -0.31975
vt 0.13928 -0.49100
vt 0.09937 -0.33191
vt 0.10387 -0.30435
vt 0.15856 -0.35420
vt 0.13928 -0.50532
vt 0.09937 -0.34311
vt 0.10387 -0.31501
vt 0.15856 -0.36583
vt 0.13928 -0.37980
vt 0.15856 -0.26382
vt 0.10387 0.23947
vt 0.09937 0.35312
vt 0.10387 0.34764
vt 0.13928 0.52449
vt 0.09937 0.46241
vt 0.10387 0.45166
vt 0.13928 0.65325
vt 0.09937 0.56314
vt 0.10387 0.54753
vt 0.15856 0.57576
vt 0.13928 0.76612
vt 0.09937 0.65141
vt 0.10387 0.63155
vt 0.15856 0.66748
vt 0.13928 0.85873
vt 0.09937 0.72386
vt 0.10387 0.70050
vt 0.15856 0.74276
vt 0.13928 0.92757
vt 0.09937 0.77771
vt 0.10387 0.75175
vt 0.15856 0.79870
vt 0.13928 0.96995
vt 0.09937 0.81086
vt 0.10387 0.78330
vt 0.15856 0.83315
vt 0.13928 0.98426
vt 0.09937 0.82204
vt 0.10387 0.79395
vt 0.15856 0.84478
vt 0.63896 1.98705
vt 0.72877 1.98705
vt 0.72877 1.90876
vt 0.63896 1.90876
vt 0.63896 1.79502
vt 0.72877 1.79502
vt 0.63896 1.68012
vt 0.72877 1.68012
vt 0.63896 1.59978
vt 0.72877 1.59978
vt 0.52491 1.98705
vt 0.52491 1.90876
vt 0.52491 1.79502
vt 0.52491 1.68012
vt 0.52491 1.59978
vt 0.42565 1.98705
vt 0.42565 1.90876
vt 0.42565 1.79502
vt 0.42565 1.68012
vt 0.42565 1.59978
vt 0.42565 1.51209
vt 0.52491 1.51209
vt 0.32501 1.98705
vt 0.32501 1.90876
vt 0.32501 1.79502
vt 0.32501 1.68012
vt 0.32501 1.59978
vt 0.32501 1.51208
vt 0.22231 1.98705
vt 0.22231 1.90876
vt 0.22231 1.79502
vt 0.22231 1.68012
vt 0.22231 1.59978
vt 0.22231 1.51208
vt 0.63896 1.51209
vt 0.72876 1.51209
vt 0.72877 1.43233
vt 0.63896 1.43233
vt 0.52491 1.43233
vt 0.42565 1.43233
vt 0.63896 1.31876
vt 0.52491 1.31876
vt 0.42565 1.31875
vt 0.32501 1.31875
vt 0.32501 1.43233
vt 0.72877 1.31876
vt 0.63896 1.21246
vt 0.52491 1.21246
vt 0.42565 1.21246
vt 0.32501 1.21246
vt 0.22231 1.21246
vt 0.22231 1.31876
vt 0.72877 1.21246
vt 0.63896 1.12036
vt 0.52491 1.12036
vt 0.42565 1.12036
vt 0.32501 1.12036
vt 0.22231 1.12036
vt 0.72877 1.12036
vt 0.63896 1.03835
vt 0.52491 1.03835
vt 0.42565 1.03835
vt 0.32501 1.03835
vt 0.22231 1.03835
vt 0.72877 1.03835
vt 0.72877 0.94908
vt 0.63896 0.94908
vt 0.52491 0.94908
vt 0.42565 0.94908
vt 0.32501 0.94908
vt 0.63896 0.82617
vt 0.52491 0.82617
vt 0.42565 0.82617
vt 0.32501 0.82617
vt 0.22231 0.82617
vt 0.22231 0.94908
vt 0.72877 0.82617
vt 0.63896 0.70403
vt 0.52491 0.70403
vt 0.42565 0.70403
vt 0.32501 0.70403
vt 0.22231 0.70403
vt 0.72877 0.70403
vt 0.72877 0.62033
vt 0.63896 0.62033
vt 0.52491 0.62033
vt 0.42565 0.62033
vt 0.32501 0.62033
vt 0.22231 0.62033
vt 0.63896 0.52697
vt 0.52491 0.52697
vt 0.42565 0.52697
vt 0.32501 0.52697
vt 0.22231 0.52697
vt 0.72877 0.52697
vt 0.72877 0.43172
vt 0.63896 0.43171
vt 0.52491 0.43172
vt 0.42565 0.43171
vt 0.32501 0.43171
vt 0.63896 0.30374
vt 0.52491 0.30374
vt 0.42565 0.30374
vt 0.32501 0.30374
vt 0.22231 0.30374
vt 0.22231 0.43171
vt 0.72877 0.30374
vt 0.63896 0.17085
vt 0.52491 0.17085
vt 0.42565 0.17085
vt 0.32501 0.17085
vt 0.22231 0.17085
vt 0.72877 0.17085
vt 0.63896 0.07855
vt 0.52491 0.07855
vt 0.42565 0.07855
vt 0.32501 0.07855
vt 0.22231 0.07855
vt 0.72877 0.07855
vt 0.63870 0.00448
vt 0.52478 0.00447
vt 0.42594 0.00445
vt 0.32489 0.00446
vt 0.72959 0.00449
vt 0.22136 0.00449
vt 0.22231 1.43233
# 348 texture vertices

usemtl Texture_002
f 3/3 2/2 1/1
f 3/3 4/4 2/2
f 4/4 3/3 5/5
f 5/5 6/6 4/4
f 6/6 5/5 7/7
f 7/7 8/8 6/6
f 3/3 1/1 9/9
f 9/9 10/10 3/3
f 5/5 3/3 10/10
f 10/10 11/11 5/5
f 5/5 11/11 12/12
f 12/12 7/7 5/5
f 13/13 7/7 12/12
f 8/8 7/7 13/13
f 13/13 14/14 8/8
f 14/14 13/13 15/15
f 15/15 16/16 14/14
f 10/10 9/9 17/17
f 17/17 18/18 10/10
f 10/10 18/18 19/19
f 19/19 11/11 10/10
f 12/12 11/11 19/19
f 19/19 20/20 12/12
f 12/12 20/20 21/21
f 21/21 22/22 12/12
f 12/12 22/22 13/13
f 13/13 22/22 23/23
f 23/23 15/15 13/13
f 18/18 17/17 24/24
f 24/24 25/25 18/18
f 19/19 18/18 25/25
f 25/25 26/26 19/19
f 19/19 26/26 27/27
f 27/27 20/20 19/19
f 21/21 20/20 27/27
f 25/25 24/24 28/28
f 28/28 29/29 25/25
f 25/25 29/29 30/30
f 30/30 26/26 25/25
f 27/27 26/26 30/30
f 30/30 31/31 27/27
f 27/27 31/31 32/32
f 32/32 33/33 27/27
f 27/27 33/33 21/21
f 29/29 28/28 34/34
f 34/34 35/35 29/29
f 30/30 29/29 35/35
f 35/35 36/36 30/30
f 30/30 36/36 37/37
f 37/37 31/31 30/30
f 32/32 31/31 37/37
f 35/35 34/34 38/38
f 38/38 39/39 35/35
f 35/35 39/39 40/40
f 40/40 36/36 35/35
f 37/37 36/36 40/40
f 40/40 41/41 37/37
f 37/37 41/41 42/42
f 42/42 43/43 37/37
f 37/37 43/43 32/32
f 38/38 44/44 39/39
f 39/39 44/44 45/45
f 39/39 45/45 46/46
f 46/46 40/40 39/39
f 40/40 46/46 47/47
f 47/47 41/41 40/40
f 41/41 47/47 48/48
f 48/48 42/42 41/41
f 42/42 48/48 49/49
f 49/49 50/50 42/42
f 42/42 50/50 51/51
f 51/51 43/43 42/42
f 32/32 43/43 51/51
f 51/51 52/52 32/32
f 32/32 52/52 53/53
f 53/53 33/33 32/32
f 21/21 33/33 53/53
f 50/50 49/49 54/54
f 54/54 55/55 50/50
f 51/51 50/50 55/55
f 55/55 56/56 51/51
f 51/51 56/56 57/57
f 57/57 52/52 51/51
f 53/53 52/52 57/57
f 57/57 58/58 53/53
f 53/53 58/58 59/59
f 59/59 60/60 53/53
f 53/53 60/60 21/21
f 55/55 54/54 61/61
f 61/61 62/62 55/55
f 55/55 62/62 63/63
f 63/63 56/56 55/55
f 57/57 56/56 63/63
f 63/63 64/64 57/57
f 57/57 64/64 65/65
f 65/65 58/58 57/57
f 59/59 58/58 65/65
f 61/61 66/66 62/62
f 62/62 66/66 67/67
f 62/62 67/67 68/68
f 68/68 63/63 62/62
f 63/63 68/68 69/69
f 69/69 64/64 63/63
f 64/64 69/69 70/70
f 70/70 65/65 64/64
f 65/65 70/70 71/71
f 71/71 72/72 65/65
f 65/65 72/72 59/59
f 59/59 72/72 73/73
f 73/73 74/74 59/59
f 59/59 74/74 23/23
f 23/23 60/60 59/59
f 21/21 60/60 23/23
f 72/72 71/71 75/75
f 75/75 73/73 72/72
f 73/73 75/75 76/76
f 76/76 77/77 73/73
f 73/73 77/77 78/78
f 78/78 74/74 73/73
f 23/23 74/74 78/78
f 78/78 15/15 23/23
f 16/16 15/15 78/78
f 78/78 79/79 16/16
f 79/79 78/78 77/77
f 77/77 80/80 79/79
f 77/77 81/81 80/80
f 76/76 81/81 77/77
f 23/23 22/22 21/21
f 84/84 83/83 82/82
f 83/83 84/84 85/85
f 85/85 86/86 83/83
f 86/86 85/85 87/87
f 87/87 88/88 86/86
f 88/88 87/87 89/89
f 89/89 90/90 88/88
f 82/82 91/91 84/84
f 92/92 84/84 91/91
f 84/84 92/92 93/93
f 93/93 85/85 84/84
f 85/85 93/93 94/94
f 94/94 87/87 85/85
f 87/87 94/94 95/95
f 95/95 89/89 87/87
f 91/91 82/82 96/96
f 96/96 97/97 91/91
f 98/98 91/91 97/97
f 91/91 98/98 92/92
f 17/99 92/92 98/98
f 92/92 17/99 9/100
f 9/100 93/93 92/92
f 93/93 9/100 1/101
f 1/101 94/94 93/93
f 94/94 1/101 2/102
f 2/102 95/95 94/94
f 97/97 96/96 99/103
f 99/103 100/104 97/97
f 101/105 97/97 100/104
f 97/97 101/105 98/98
f 24/106 98/98 101/105
f 98/98 24/106 17/99
f 100/104 99/103 102/107
f 102/107 103/108 100/104
f 104/109 100/104 103/108
f 100/104 104/109 101/105
f 28/110 101/105 104/109
f 101/105 28/110 24/106
f 103/108 102/107 105/111
f 105/111 106/112 103/108
f 107/113 103/108 106/112
f 103/108 107/113 104/109
f 34/114 104/109 107/113
f 104/109 34/114 28/110
f 106/112 105/111 108/115
f 108/115 109/116 106/112
f 106/112 109/116 110/117
f 110/117 111/118 106/112
f 106/112 111/118 107/113
f 38/119 107/113 111/118
f 107/113 38/119 34/114
f 109/116 108/115 112/120
f 112/120 113/121 109/116
f 110/117 109/116 113/121
f 113/121 114/122 110/117
f 45/123 110/117 114/122
f 111/118 110/117 45/123
f 45/123 44/124 111/118
f 111/118 44/124 38/119
f 113/121 112/120 115/125
f 115/125 116/126 113/121
f 114/122 113/121 116/126
f 116/126 117/127 114/122
f 46/128 114/122 117/127
f 114/122 46/128 45/123
f 116/126 115/125 118/129
f 118/129 119/130 116/126
f 117/127 116/126 119/130
f 119/130 120/131 117/127
f 47/132 117/127 120/131
f 117/127 47/132 46/128
f 119/130 118/129 121/125
f 121/125 122/126 119/130
f 120/131 119/130 122/126
f 122/126 123/127 120/131
f 48/133 120/131 123/127
f 120/131 48/133 47/132
f 122/126 121/125 124/120
f 124/120 125/121 122/126
f 123/127 122/126 125/121
f 125/121 126/122 123/127
f 49/132 123/127 126/122
f 123/127 49/132 48/133
f 125/121 124/120 127/115
f 127/115 128/116 125/121
f 126/122 125/121 128/116
f 128/116 129/117 126/122
f 54/128 126/122 129/117
f 126/122 54/128 49/132
f 128/116 127/115 130/111
f 130/111 131/112 128/116
f 129/117 128/116 131/112
f 131/112 132/118 129/117
f 61/123 129/117 132/118
f 129/117 61/123 54/128
f 131/112 130/111 133/107
f 133/107 134/108 131/112
f 132/118 131/112 134/108
f 134/108 135/113 132/118
f 66/124 132/118 135/113
f 132/118 66/124 61/123
f 134/108 133/107 136/103
f 136/103 137/104 134/108
f 135/113 134/108 137/104
f 137/104 138/134 135/113
f 67/119 135/113 138/134
f 135/113 67/119 66/124
f 137/104 136/103 139/96
f 139/96 140/97 137/104
f 138/134 137/104 140/97
f 140/97 141/105 138/134
f 68/114 138/134 141/105
f 138/134 68/114 67/119
f 140/97 139/96 142/82
f 142/82 143/91 140/97
f 141/105 140/97 143/91
f 143/91 144/98 141/105
f 69/110 141/105 144/98
f 141/105 69/110 68/114
f 143/91 142/82 145/83
f 145/83 146/84 143/91
f 144/98 143/91 146/84
f 146/84 147/92 144/98
f 70/106 144/98 147/92
f 144/98 70/106 69/110
f 146/84 145/83 148/86
f 148/86 149/85 146/84
f 147/92 146/84 149/85
f 149/85 150/93 147/92
f 71/99 147/92 150/93
f 147/92 71/99 70/106
f 149/85 148/86 151/88
f 151/88 152/87 149/85
f 150/93 149/85 152/87
f 152/87 153/94 150/93
f 75/100 150/93 153/94
f 150/93 75/100 71/99
f 152/87 151/88 154/90
f 154/90 155/89 152/87
f 153/94 152/87 155/89
f 155/89 156/95 153/94
f 76/101 153/94 156/95
f 153/94 76/101 75/100
f 155/89 154/90 157/135
f 157/135 158/136 155/89
f 156/95 155/89 158/136
f 158/136 159/137 156/95
f 81/102 156/95 159/137
f 156/95 81/102 76/101
f 158/136 157/135 160/138
f 160/138 161/139 158/136
f 159/137 158/136 161/139
f 161/139 162/140 159/137
f 80/141 159/137 162/140
f 159/137 80/141 81/102
f 161/139 160/138 163/142
f 163/142 164/143 161/139
f 162/140 161/139 164/143
f 164/143 165/144 162/140
f 79/145 162/140 165/144
f 162/140 79/145 80/141
f 164/143 163/142 166/146
f 166/146 167/147 164/143
f 165/144 164/143 167/147
f 167/147 168/148 165/144
f 16/149 165/144 168/148
f 165/144 16/149 79/145
f 167/147 166/146 169/142
f 169/142 170/143 167/147
f 168/148 167/147 170/143
f 170/143 171/144 168/148
f 14/150 168/148 171/144
f 168/148 14/150 16/149
f 170/143 169/142 172/138
f 172/138 173/139 170/143
f 171/144 170/143 173/139
f 173/139 174/140 171/144
f 8/149 171/144 174/140
f 171/144 8/149 14/150
f 173/139 172/138 175/151
f 175/151 176/152 173/139
f 174/140 173/139 176/152
f 176/152 177/137 174/140
f 6/145 174/140 177/137
f 174/140 6/145 8/149
f 176/152 175/151 90/90
f 90/90 89/89 176/152
f 177/137 176/152 89/89
f 89/89 95/95 177/137
f 4/141 177/137 95/95
f 177/137 4/141 6/145
f 95/95 2/102 4/141
f 180/81 179/77 178/80
f 181/76 179/77 180/81
f 182/73 179/77 181/76
f 183/78 179/77 182/73
f 179/77 183/78 184/79
f 184/79 178/80 179/77
f 181/76 185/75 182/73
f 186/72 182/73 185/75
f 182/73 186/72 187/59
f 187/59 188/74 182/73
f 182/73 188/74 183/78
f 183/78 188/74 189/23
f 189/23 190/15 183/78
f 183/78 190/15 191/16
f 191/16 184/79 183/78
f 185/75 192/71 186/72
f 193/65 186/72 192/71
f 187/59 186/72 193/65
f 193/65 194/58 187/59
f 187/59 194/58 195/53
f 195/53 196/60 187/59
f 187/59 196/60 189/23
f 189/23 188/74 187/59
f 192/71 197/70 193/65
f 198/64 193/65 197/70
f 193/65 198/64 199/57
f 199/57 194/58 193/65
f 195/53 194/58 199/57
f 199/57 200/52 195/53
f 195/53 200/52 201/32
f 201/32 202/33 195/53
f 195/53 202/33 203/21
f 203/21 196/60 195/53
f 189/23 196/60 203/21
f 197/70 204/69 198/64
f 205/63 198/64 204/69
f 199/57 198/64 205/63
f 205/63 206/56 199/57
f 199/57 206/56 207/51
f 207/51 200/52 199/57
f 201/32 200/52 207/51
f 204/69 208/68 205/63
f 209/62 205/63 208/68
f 205/63 209/62 210/55
f 210/55 206/56 205/63
f 207/51 206/56 210/55
f 210/55 211/50 207/51
f 207/51 211/50 212/42
f 212/42 213/43 207/51
f 207/51 213/43 201/32
f 208/68 214/67 209/62
f 215/66 209/62 214/67
f 216/61 209/62 215/66
f 210/55 209/62 216/61
f 216/61 217/54 210/55
f 211/50 210/55 217/54
f 217/54 218/49 211/50
f 212/42 211/50 218/49
f 218/49 219/48 212/42
f 220/41 212/42 219/48
f 212/42 220/41 221/37
f 221/37 213/43 212/42
f 201/32 213/43 221/37
f 221/37 222/31 201/32
f 201/32 222/31 223/27
f 223/27 202/33 201/32
f 203/21 202/33 223/27
f 219/48 224/47 220/41
f 225/40 220/41 224/47
f 221/37 220/41 225/40
f 225/40 226/36 221/37
f 221/37 226/36 227/30
f 227/30 222/31 221/37
f 223/27 222/31 227/30
f 227/30 228/26 223/27
f 223/27 228/26 229/19
f 229/19 230/20 223/27
f 223/27 230/20 203/21
f 224/47 231/46 225/40
f 232/39 225/40 231/46
f 225/40 232/39 233/35
f 233/35 226/36 225/40
f 227/30 226/36 233/35
f 233/35 234/29 227/30
f 227/30 234/29 235/25
f 235/25 228/26 227/30
f 229/19 228/26 235/25
f 231/46 236/45 232/39
f 237/44 232/39 236/45
f 238/38 232/39 237/44
f 233/35 232/39 238/38
f 238/38 239/34 233/35
f 234/29 233/35 239/34
f 239/34 240/28 234/29
f 235/25 234/29 240/28
f 240/28 241/24 235/25
f 242/18 235/25 241/24
f 235/25 242/18 229/19
f 229/19 242/18 243/10
f 243/10 244/11 229/19
f 229/19 244/11 245/12
f 245/12 230/20 229/19
f 203/21 230/20 245/12
f 241/24 246/17 242/18
f 243/10 242/18 246/17
f 246/17 247/9 243/10
f 248/3 243/10 247/9
f 243/10 248/3 249/5
f 249/5 244/11 243/10
f 245/12 244/11 249/5
f 249/5 250/7 245/12
f 245/12 250/7 251/13
f 251/13 252/22 245/12
f 245/12 252/22 203/21
f 203/21 252/22 189/23
f 247/9 253/1 248/3
f 248/3 253/1 254/2
f 248/3 254/2 255/4
f 249/5 248/3 255/4
f 255/4 256/6 249/5
f 250/7 249/5 256/6
f 256/6 257/8 250/7
f 251/13 250/7 257/8
f 257/8 258/14 251/13
f 190/15 251/13 258/14
f 251/13 190/15 189/23
f 189/23 252/22 251/13
f 258/14 191/16 190/15
f 261/155 260/154 259/153
f 262/156 259/153 260/154
f 259/153 262/156 263/157
f 263/157 264/158 259/153
f 265/159 259/153 264/158
f 259/153 265/159 261/155
f 266/160 261/155 265/159
f 265/159 267/161 266/160
f 268/162 266/160 267/161
f 260/154 269/163 262/156
f 270/164 262/156 269/163
f 262/156 270/164 271/165
f 271/165 263/157 262/156
f 263/157 271/165 253/166
f 253/166 247/167 263/157
f 264/158 263/157 247/167
f 247/167 246/168 264/158
f 272/169 264/158 246/168
f 264/158 272/169 265/159
f 267/161 265/159 272/169
f 269/163 273/170 270/164
f 274/171 270/164 273/170
f 270/164 274/171 275/172
f 275/172 271/165 270/164
f 271/165 275/172 254/173
f 254/173 253/166 271/165
f 273/170 276/174 274/171
f 277/175 274/171 276/174
f 274/171 277/175 278/176
f 278/176 275/172 274/171
f 275/172 278/176 255/177
f 255/177 254/173 275/172
f 276/174 279/178 277/175
f 280/179 277/175 279/178
f 277/175 280/179 281/180
f 281/180 278/176 277/175
f 278/176 281/180 256/181
f 256/181 255/177 278/176
f 279/178 282/182 280/179
f 283/183 280/179 282/182
f 280/179 283/183 284/184
f 284/184 281/180 280/179
f 281/180 284/184 257/185
f 257/185 256/181 281/180
f 282/182 285/186 283/183
f 286/187 283/183 285/186
f 283/183 286/187 287/188
f 287/188 284/184 283/183
f 284/184 287/188 258/189
f 258/189 257/185 284/184
f 285/186 288/190 286/187
f 289/183 286/187 288/190
f 286/187 289/183 290/184
f 290/184 287/188 286/187
f 287/188 290/184 191/185
f 191/185 258/189 287/188
f 288/190 291/186 289/183
f 292/179 289/183 291/186
f 289/183 292/179 293/180
f 293/180 290/184 289/183
f 290/184 293/180 184/181
f 184/181 191/185 290/184
f 291/186 294/182 292/179
f 295/191 292/179 294/182
f 292/179 295/191 296/176
f 296/176 293/180 292/179
f 293/180 296/176 178/177
f 178/177 184/181 293/180
f 294/182 297/192 295/191
f 298/171 295/191 297/192
f 295/191 298/171 299/172
f 299/172 296/176 295/191
f 296/176 299/172 180/173
f 180/173 178/177 296/176
f 297/192 300/174 298/171
f 301/164 298/171 300/174
f 298/171 301/164 302/165
f 302/165 299/172 298/171
f 299/172 302/165 181/166
f 181/166 180/173 299/172
f 300/174 303/170 301/164
f 304/156 301/164 303/170
f 301/164 304/156 305/157
f 305/157 302/165 301/164
f 302/165 305/157 185/167
f 185/167 181/166 302/165
f 303/170 306/163 304/156
f 307/153 304/156 306/163
f 304/156 307/153 308/158
f 308/158 305/157 304/156
f 305/157 308/158 192/168
f 192/168 185/167 305/157
f 306/163 309/154 307/153
f 310/159 307/153 309/154
f 307/153 310/159 311/169
f 311/169 308/158 307/153
f 308/158 311/169 197/193
f 197/193 192/168 308/158
f 309/154 312/155 310/159
f 313/161 310/159 312/155
f 310/159 313/161 314/194
f 314/194 311/169 310/159
f 311/169 314/194 204/195
f 204/195 197/193 311/169
f 312/155 315/160 313/161
f 316/196 313/161 315/160
f 313/161 316/196 317/197
f 317/197 314/194 313/161
f 314/194 317/197 208/198
f 208/198 204/195 314/194
f 315/160 318/162 316/196
f 319/199 316/196 318/162
f 316/196 319/199 320/200
f 320/200 317/197 316/196
f 317/197 320/200 214/201
f 214/201 208/198 317/197
f 318/162 321/202 319/199
f 322/203 319/199 321/202
f 319/199 322/203 323/204
f 323/204 320/200 319/199
f 320/200 323/204 215/205
f 215/205 214/201 320/200
f 321/202 324/206 322/203
f 325/207 322/203 324/206
f 322/203 325/207 326/208
f 326/208 323/204 322/203
f 323/204 326/208 216/209
f 216/209 215/205 323/204
f 324/206 327/210 325/207
f 328/211 325/207 327/210
f 325/207 328/211 329/212
f 329/212 326/208 325/207
f 326/208 329/212 217/213
f 217/213 216/209 326/208
f 327/210 330/214 328/211
f 331/215 328/211 330/214
f 328/211 331/215 332/216
f 332/216 329/212 328/211
f 329/212 332/216 218/217
f 218/217 217/213 329/212
f 330/214 333/218 331/215
f 334/219 331/215 333/218
f 331/215 334/219 335/220
f 335/220 332/216 331/215
f 332/216 335/220 219/221
f 219/221 218/217 332/216
f 333/218 336/222 334/219
f 337/215 334/219 336/222
f 334/219 337/215 338/216
f 338/216 335/220 334/219
f 335/220 338/216 224/217
f 224/217 219/221 335/220
f 336/222 339/218 337/215
f 340/211 337/215 339/218
f 337/215 340/211 341/212
f 341/212 338/216 337/215
f 338/216 341/212 231/213
f 231/213 224/217 338/216
f 339/218 342/214 340/211
f 343/207 340/211 342/214
f 340/211 343/207 344/208
f 344/208 341/212 340/211
f 341/212 344/208 236/209
f 236/209 231/213 341/212
f 342/214 345/210 343/207
f 346/203 343/207 345/210
f 344/208 343/207 346/203
f 346/203 347/204 344/208
f 236/209 344/208 347/204
f 347/204 237/205 236/209
f 238/201 237/205 347/204
f 347/204 348/200 238/201
f 239/198 238/201 348/200
f 345/210 349/206 346/203
f 350/199 346/203 349/206
f 346/203 350/199 348/200
f 348/200 347/204 346/203
f 349/206 351/202 350/199
f 352/196 350/199 351/202
f 350/199 352/196 353/197
f 353/197 348/200 350/199
f 348/200 353/197 239/198
f 240/195 239/198 353/197
f 353/197 354/194 240/195
f 241/193 240/195 354/194
f 354/194 272/169 241/193
f 246/168 241/193 272/169
f 351/202 268/162 352/196
f 267/161 352/196 268/162
f 352/196 267/161 354/194
f 354/194 353/197 352/196
f 272/169 354/194 267/161
f 357/225 356/224 355/223
f 355/223 358/226 357/225
f 357/225 358/226 359/227
f 359/227 360/228 357/225
f 360/228 359/227 361/229
f 361/229 362/230 360/228
f 362/230 361/229 363/231
f 363/231 364/232 362/230
f 358/226 355/223 365/233
f 365/233 366/234 358/226
f 358/226 366/234 367/235
f 367/235 359/227 358/226
f 359/227 367/235 368/236
f 368/236 361/229 359/227
f 361/229 368/236 369/237
f 369/237 363/231 361/229
f 366/234 365/233 370/238
f 370/238 371/239 366/234
f 366/234 371/239 372/240
f 372/240 367/235 366/234
f 367/235 372/240 373/241
f 373/241 368/236 367/235
f 368/236 373/241 374/242
f 374/242 369/237 368/236
f 369/237 374/242 375/243
f 375/243 376/244 369/237
f 363/231 369/237 376/244
f 371/239 370/238 377/245
f 377/245 378/246 371/239
f 371/239 378/246 379/247
f 379/247 372/240 371/239
f 372/240 379/247 380/248
f 380/248 373/241 372/240
f 373/241 380/248 381/249
f 381/249 374/242 373/241
f 374/242 381/249 382/250
f 382/250 375/243 374/242
f 378/246 377/245 383/251
f 383/251 384/252 378/246
f 378/246 384/252 385/253
f 385/253 379/247 378/246
f 379/247 385/253 386/254
f 386/254 380/248 379/247
f 380/248 386/254 387/255
f 387/255 381/249 380/248
f 381/249 387/255 388/256
f 388/256 382/250 381/249
f 389/246 384/252 383/251
f 385/253 384/252 389/246
f 389/246 390/247 385/253
f 386/254 385/253 390/247
f 390/247 391/248 386/254
f 387/255 386/254 391/248
f 391/248 392/249 387/255
f 388/256 387/255 392/249
f 383/251 393/245 389/246
f 394/239 389/246 393/245
f 390/247 389/246 394/239
f 394/239 395/240 390/247
f 391/248 390/247 395/240
f 395/240 396/241 391/248
f 392/249 391/248 396/241
f 396/241 397/242 392/249
f 398/250 392/249 397/242
f 392/249 398/250 388/256
f 393/245 399/238 394/239
f 400/234 394/239 399/238
f 395/240 394/239 400/234
f 400/234 401/235 395/240
f 396/241 395/240 401/235
f 401/235 402/236 396/241
f 397/242 396/241 402/236
f 402/236 403/237 397/242
f 404/243 397/242 403/237
f 397/242 404/243 398/250
f 399/238 405/233 400/234
f 406/226 400/234 405/233
f 401/235 400/234 406/226
f 406/226 407/227 401/235
f 402/236 401/235 407/227
f 407/227 408/229 402/236
f 403/237 402/236 408/229
f 408/229 409/231 403/237
f 410/244 403/237 409/231
f 403/237 410/244 404/243
f 405/233 411/223 406/226
f 412/225 406/226 411/223
f 407/227 406/226 412/225
f 412/225 413/228 407/227
f 408/229 407/227 413/228
f 413/228 414/230 408/229
f 409/231 408/229 414/230
f 414/230 415/232 409/231
f 416/257 409/231 415/232
f 409/231 416/257 410/244
f 411/223 417/224 412/225
f 415/232 418/258 416/257
f 416/257 418/258 419/259
f 419/259 420/260 416/257
f 410/244 416/257 420/260
f 420/260 421/261 410/244
f 404/243 410/244 421/261
f 421/261 422/262 404/243
f 398/250 404/243 422/262
f 423/263 420/260 419/259
f 420/260 423/263 424/264
f 424/264 421/261 420/260
f 421/261 424/264 425/265
f 425/265 422/262 421/261
f 422/262 425/265 426/266
f 426/266 427/267 422/262
f 422/262 427/267 398/250
f 388/256 398/250 427/267
f 419/259 428/268 423/263
f 429/269 423/263 428/268
f 423/263 429/269 430/270
f 430/270 424/264 423/263
f 424/264 430/270 431/271
f 431/271 425/265 424/264
f 425/265 431/271 432/272
f 432/272 426/266 425/265
f 426/266 432/272 433/273
f 433/273 434/274 426/266
f 427/267 426/266 434/274
f 428/268 435/275 429/269
f 436/276 429/269 435/275
f 429/269 436/276 437/277
f 437/277 430/270 429/269
f 430/270 437/277 438/278
f 438/278 431/271 430/270
f 431/271 438/278 439/279
f 439/279 432/272 431/271
f 432/272 439/279 440/280
f 440/280 433/273 432/272
f 435/275 441/281 436/276
f 442/282 436/276 441/281
f 436/276 442/282 443/283
f 443/283 437/277 436/276
f 437/277 443/283 444/284
f 444/284 438/278 437/277
f 438/278 444/284 445/285
f 445/285 439/279 438/278
f 439/279 445/285 446/286
f 446/286 440/280 439/279
f 441/281 447/287 442/282
f 442/282 447/287 448/288
f 448/288 449/289 442/282
f 443/283 442/282 449/289
f 449/289 450/290 443/283
f 444/284 443/283 450/290
f 450/290 451/291 444/284
f 445/285 444/284 451/291
f 451/291 452/292 445/285
f 446/286 445/285 452/292
f 453/293 449/289 448/288
f 449/289 453/293 454/294
f 454/294 450/290 449/289
f 450/290 454/294 455/295
f 455/295 451/291 450/290
f 451/291 455/295 456/296
f 456/296 452/292 451/291
f 452/292 456/296 457/297
f 457/297 458/298 452/292
f 452/292 458/298 446/286
f 448/288 459/299 453/293
f 460/300 453/293 459/299
f 453/293 460/300 461/301
f 461/301 454/294 453/293
f 454/294 461/301 462/302
f 462/302 455/295 454/294
f 455/295 462/302 463/303
f 463/303 456/296 455/295
f 456/296 463/303 464/304
f 464/304 457/297 456/296
f 459/299 465/305 460/300
f 460/300 465/305 466/306
f 466/306 467/307 460/300
f 461/301 460/300 467/307
f 467/307 468/308 461/301
f 462/302 461/301 468/308
f 468/308 469/309 462/302
f 463/303 462/302 469/309
f 469/309 470/310 463/303
f 463/303 470/310 471/311
f 471/311 464/304 463/303
f 472/312 467/307 466/306
f 467/307 472/312 473/313
f 473/313 468/308 467/307
f 468/308 473/313 474/314
f 474/314 469/309 468/308
f 469/309 474/314 475/315
f 475/315 470/310 469/309
f 470/310 475/315 476/316
f 476/316 471/311 470/310
f 466/306 477/317 472/312
f 472/312 477/317 478/318
f 478/318 479/319 472/312
f 473/313 472/312 479/319
f 479/319 480/320 473/313
f 474/314 473/313 480/320
f 480/320 481/321 474/314
f 475/315 474/314 481/321
f 481/321 482/322 475/315
f 476/316 475/315 482/322
f 483/323 479/319 478/318
f 479/319 483/323 484/324
f 484/324 480/320 479/319
f 480/320 484/324 485/325
f 485/325 481/321 480/320
f 481/321 485/325 486/326
f 486/326 482/322 481/321
f 482/322 486/326 487/327
f 487/327 488/328 482/322
f 482/322 488/328 476/316
f 478/318 489/329 483/323
f 490/330 483/323 489/329
f 483/323 490/330 491/331
f 491/331 484/324 483/323
f 484/324 491/331 492/332
f 492/332 485/325 484/324
f 485/325 492/332 493/333
f 493/333 486/326 485/325
f 486/326 493/333 494/334
f 494/334 487/327 486/326
f 489/329 495/335 490/330
f 496/336 490/330 495/335
f 490/330 496/336 497/337
f 497/337 491/331 490/330
f 491/331 497/337 498/338
f 498/338 492/332 491/331
f 492/332 498/338 499/339
f 499/339 493/333 492/332
f 493/333 499/339 500/340
f 500/340 494/334 493/333
f 495/335 501/341 496/336
f 502/342 496/336 501/341
f 497/337 496/336 502/342
f 502/342 503/343 497/337
f 498/338 497/337 503/343
f 503/343 504/344 498/338
f 499/339 498/338 504/344
f 504/344 505/345 499/339
f 500/340 499/339 505/345
f 501/341 506/346 502/342
f 505/345 507/347 500/340
f 500/340 507/347 508/345
f 508/345 509/339 500/340
f 500/340 509/339 510/333
f 510/333 494/334 500/340
f 494/334 510/333 511/326
f 511/326 487/327 494/334
f 487/327 511/326 512/322
f 512/322 488/328 487/327
f 509/339 508/345 513/344
f 513/344 514/338 509/339
f 509/339 514/338 515/332
f 515/332 510/333 509/339
f 510/333 515/332 516/325
f 516/325 511/326 510/333
f 511/326 516/325 517/321
f 517/321 512/322 511/326
f 518/315 512/322 517/321
f 512/322 518/315 476/316
f 476/316 488/328 512/322
f 514/338 513/344 519/343
f 519/343 520/337 514/338
f 514/338 520/337 521/331
f 521/331 515/332 514/338
f 515/332 521/331 522/324
f 522/324 516/325 515/332
f 516/325 522/324 523/320
f 523/320 517/321 516/325
f 524/314 517/321 523/320
f 517/321 524/314 518/315
f 520/337 519/343 525/342
f 525/342 526/336 520/337
f 520/337 526/336 527/330
f 527/330 521/331 520/337
f 521/331 527/330 528/323
f 528/323 522/324 521/331
f 522/324 528/323 529/319
f 529/319 523/320 522/324
f 530/313 523/320 529/319
f 523/320 530/313 524/314
f 526/336 525/342 531/346
f 531/346 532/341 526/336
f 526/336 532/341 533/335
f 533/335 527/330 526/336
f 527/330 533/335 534/329
f 534/329 528/323 527/330
f 528/323 534/329 535/318
f 535/318 529/319 528/323
f 536/312 529/319 535/318
f 529/319 536/312 530/313
f 530/313 536/312 537/307
f 537/307 538/308 530/313
f 524/314 530/313 538/308
f 538/308 539/309 524/314
f 518/315 524/314 539/309
f 535/318 540/317 536/312
f 537/307 536/312 540/317
f 540/317 541/306 537/307
f 542/300 537/307 541/306
f 537/307 542/300 543/301
f 543/301 538/308 537/307
f 538/308 543/301 544/302
f 544/302 539/309 538/308
f 539/309 544/302 545/303
f 545/303 546/310 539/309
f 539/309 546/310 518/315
f 476/316 518/315 546/310
f 546/310 471/311 476/316
f 541/306 547/305 542/300
f 542/300 547/305 548/299
f 548/299 549/293 542/300
f 543/301 542/300 549/293
f 549/293 550/294 543/301
f 544/302 543/301 550/294
f 550/294 551/295 544/302
f 545/303 544/302 551/295
f 551/295 552/296 545/303
f 464/304 545/303 552/296
f 545/303 464/304 471/311
f 471/311 546/310 545/303
f 549/293 548/299 553/288
f 553/288 554/289 549/293
f 550/294 549/293 554/289
f 554/289 555/290 550/294
f 551/295 550/294 555/290
f 555/290 556/291 551/295
f 552/296 551/295 556/291
f 556/291 557/292 552/296
f 457/297 552/296 557/292
f 552/296 457/297 464/304
f 558/282 554/289 553/288
f 554/289 558/282 559/283
f 559/283 555/290 554/289
f 555/290 559/283 560/284
f 560/284 556/291 555/290
f 556/291 560/284 561/285
f 561/285 557/292 556/291
f 557/292 561/285 446/286
f 446/286 458/298 557/292
f 557/292 458/298 457/297
f 553/288 562/287 558/282
f 563/276 558/282 562/287
f 559/283 558/282 563/276
f 563/276 564/277 559/283
f 560/284 559/283 564/277
f 564/277 565/278 560/284
f 561/285 560/284 565/278
f 565/278 566/279 561/285
f 446/286 561/285 566/279
f 566/279 440/280 446/286
f 440/280 566/279 567/272
f 567/272 433/273 440/280
f 562/287 568/281 563/276
f 563/276 568/281 569/275
f 569/275 570/269 563/276
f 564/277 563/276 570/269
f 570/269 571/270 564/277
f 565/278 564/277 571/270
f 571/270 572/271 565/278
f 566/279 565/278 572/271
f 572/271 567/272 566/279
f 567/272 572/271 573/265
f 573/265 574/266 567/272
f 433/273 567/272 574/266
f 574/266 434/274 433/273
f 570/269 569/275 575/268
f 575/268 576/263 570/269
f 571/270 570/269 576/263
f 576/263 577/264 571/270
f 572/271 571/270 577/264
f 577/264 573/265 572/271
f 573/265 577/264 578/261
f 578/261 579/262 573/265
f 574/266 573/265 579/262
f 579/262 580/267 574/266
f 434/274 574/266 580/267
f 580/267 581/348 434/274
f 434/274 581/348 427/267
f 576/263 575/268 582/259
f 582/259 583/260 576/263
f 577/264 576/263 583/260
f 583/260 578/261 577/264
f 376/244 578/261 583/260
f 578/261 376/244 375/243
f 375/243 579/262 578/261
f 579/262 375/243 382/250
f 382/250 580/267 579/262
f 580/267 382/250 388/256
f 388/256 581/348 580/267
f 427/267 581/348 388/256
f 584/257 583/260 582/259
f 583/260 584/257 376/244
f 376/244 584/257 363/231
f 363/231 584/257 585/258
f 585/258 364/232 363/231
f 582/259 585/258 584/257
f 586/225 531/224 525/223
f 525/223 587/226 586/225
f 586/225 587/226 588/227
f 588/227 589/228 586/225
f 589/228 588/227 590/229
f 590/229 591/230 589/228
f 591/230 590/229 592/231
f 592/231 593/232 591/230
f 587/226 525/223 519/233
f 519/233 594/234 587/226
f 587/226 594/234 595/235
f 595/235 588/227 587/226
f 588/227 595/235 596/236
f 596/236 590/229 588/227
f 590/229 596/236 597/237
f 597/237 592/231 590/229
f 594/234 519/233 513/238
f 513/238 598/239 594/234
f 594/234 598/239 599/240
f 599/240 595/235 594/234
f 595/235 599/240 600/241
f 600/241 596/236 595/235
f 596/236 600/241 601/242
f 601/242 597/237 596/236
f 597/237 601/242 602/243
f 602/243 603/244 597/237
f 592/231 597/237 603/244
f 598/239 513/238 508/245
f 508/245 604/246 598/239
f 598/239 604/246 605/247
f 605/247 599/240 598/239
f 599/240 605/247 606/248
f 606/248 600/241 599/240
f 600/241 606/248 607/249
f 607/249 601/242 600/241
f 601/242 607/249 608/250
f 608/250 602/243 601/242
f 604/246 508/245 507/251
f 507/251 609/252 604/246
f 604/246 609/252 610/253
f 610/253 605/247 604/246
f 605/247 610/253 611/254
f 611/254 606/248 605/247
f 606/248 611/254 612/255
f 612/255 607/249 606/248
f 607/249 612/255 613/256
f 613/256 608/250 607/249
f 614/246 609/252 507/251
f 610/253 609/252 614/246
f 614/246 615/247 610/253
f 611/254 610/253 615/247
f 615/247 616/248 611/254
f 612/255 611/254 616/248
f 616/248 617/249 612/255
f 613/256 612/255 617/249
f 507/251 505/245 614/246
f 618/239 614/246 505/245
f 615/247 614/246 618/239
f 618/239 619/240 615/247
f 616/248 615/247 619/240
f 619/240 620/241 616/248
f 617/249 616/248 620/241
f 620/241 621/242 617/249
f 622/250 617/249 621/242
f 617/249 622/250 613/256
f 505/245 504/238 618/239
f 623/234 618/239 504/238
f 619/240 618/239 623/234
f 623/234 624/235 619/240
f 620/241 619/240 624/235
f 624/235 625/236 620/241
f 621/242 620/241 625/236
f 625/236 626/237 621/242
f 627/243 621/242 626/237
f 621/242 627/243 622/250
f 504/238 503/233 623/234
f 628/226 623/234 503/233
f 624/235 623/234 628/226
f 628/226 629/227 624/235
f 625/236 624/235 629/227
f 629/227 630/229 625/236
f 626/237 625/236 630/229
f 630/229 631/231 626/237
f 632/244 626/237 631/231
f 626/237 632/244 627/243
f 503/233 502/223 628/226
f 633/225 628/226 502/223
f 629/227 628/226 633/225
f 633/225 634/228 629/227
f 630/229 629/227 634/228
f 634/228 635/230 630/229
f 631/231 630/229 635/230
f 635/230 636/232 631/231
f 637/257 631/231 636/232
f 631/231 637/257 632/244
f 502/223 506/224 633/225
f 636/232 638/258 637/257
f 637/257 638/258 639/259
f 639/259 640/260 637/257
f 632/244 637/257 640/260
f 640/260 641/261 632/244
f 627/243 632/244 641/261
f 641/261 642/262 627/243
f 622/250 627/243 642/262
f 643/263 640/260 639/259
f 640/260 643/263 644/264
f 644/264 641/261 640/260
f 641/261 644/264 645/265
f 645/265 642/262 641/261
f 642/262 645/265 646/266
f 646/266 647/267 642/262
f 642/262 647/267 622/250
f 613/256 622/250 647/267
f 639/259 648/268 643/263
f 649/269 643/263 648/268
f 643/263 649/269 650/270
f 650/270 644/264 643/263
f 644/264 650/270 651/271
f 651/271 645/265 644/264
f 645/265 651/271 652/272
f 652/272 646/266 645/265
f 646/266 652/272 653/273
f 653/273 654/274 646/266
f 647/267 646/266 654/274
f 648/268 655/275 649/269
f 656/276 649/269 655/275
f 649/269 656/276 657/277
f 657/277 650/270 649/269
f 650/270 657/277 658/278
f 658/278 651/271 650/270
f 651/271 658/278 659/279
f 659/279 652/272 651/271
f 652/272 659/279 660/280
f 660/280 653/273 652/272
f 655/275 661/281 656/276
f 662/282 656/276 661/281
f 656/276 662/282 663/283
f 663/283 657/277 656/276
f 657/277 663/283 664/284
f 664/284 658/278 657/277
f 658/278 664/284 665/285
f 665/285 659/279 658/278
f 659/279 665/285 666/286
f 666/286 660/280 659/279
f 661/281 667/287 662/282
f 662/282 667/287 668/288
f 668/288 669/289 662/282
f 663/283 662/282 669/289
f 669/289 670/290 663/283
f 664/284 663/283 670/290
f 670/290 671/291 664/284
f 665/285 664/284 671/291
f 671/291 672/292 665/285
f 666/286 665/285 672/292
f 673/293 669/289 668/288
f 669/289 673/293 674/294
f 674/294 670/290 669/289
f 670/290 674/294 675/295
f 675/295 671/291 670/290
f 671/291 675/295 676/296
f 676/296 672/292 671/291
f 672/292 676/296 677/297
f 677/297 678/298 672/292
f 672/292 678/298 666/286
f 668/288 679/299 673/293
f 680/300 673/293 679/299
f 673/293 680/300 681/301
f 681/301 674/294 673/293
f 674/294 681/301 682/302
f 682/302 675/295 674/294
f 675/295 682/302 683/303
f 683/303 676/296 675/295
f 676/296 683/303 684/304
f 684/304 677/297 676/296
f 679/299 685/305 680/300
f 680/300 685/305 686/306
f 686/306 687/307 680/300
f 681/301 680/300 687/307
f 687/307 688/308 681/301
f 682/302 681/301 688/308
f 688/308 689/309 682/302
f 683/303 682/302 689/309
f 689/309 690/310 683/303
f 683/303 690/310 691/311
f 691/311 684/304 683/303
f 692/312 687/307 686/306
f 687/307 692/312 693/313
f 693/313 688/308 687/307
f 688/308 693/313 694/314
f 694/314 689/309 688/308
f 689/309 694/314 695/315
f 695/315 690/310 689/309
f 690/310 695/315 696/316
f 696/316 691/311 690/310
f 686/306 697/317 692/312
f 692/312 697/317 698/318
f 698/318 699/319 692/312
f 693/313 692/312 699/319
f 699/319 700/320 693/313
f 694/314 693/313 700/320
f 700/320 701/321 694/314
f 695/315 694/314 701/321
f 701/321 702/322 695/315
f 696/316 695/315 702/322
f 703/323 699/319 698/318
f 699/319 703/323 704/324
f 704/324 700/320 699/319
f 700/320 704/324 705/325
f 705/325 701/321 700/320
f 701/321 705/325 706/326
f 706/326 702/322 701/321
f 702/322 706/326 707/327
f 707/327 708/328 702/322
f 702/322 708/328 696/316
f 698/318 709/329 703/323
f 710/330 703/323 709/329
f 703/323 710/330 711/331
f 711/331 704/324 703/323
f 704/324 711/331 712/332
f 712/332 705/325 704/324
f 705/325 712/332 713/333
f 713/333 706/326 705/325
f 706/326 713/333 714/334
f 714/334 707/327 706/326
f 709/329 715/335 710/330
f 716/336 710/330 715/335
f 710/330 716/336 717/337
f 717/337 711/331 710/330
f 711/331 717/337 718/338
f 718/338 712/332 711/331
f 712/332 718/338 719/339
f 719/339 713/333 712/332
f 713/333 719/339 720/340
f 720/340 714/334 713/333
f 715/335 721/341 716/336
f 411/342 716/336 721/341
f 716/336 411/342 405/343
f 405/343 717/337 716/336
f 717/337 405/343 399/344
f 399/344 718/338 717/337
f 718/338 399/344 393/345
f 393/345 719/339 718/338
f 719/339 393/345 383/347
f 383/347 720/340 719/339
f 721/341 417/346 411/342
f 722/258 593/232 592/231
f 592/231 723/257 722/258
f 724/259 722/258 723/257
f 723/257 725/260 724/259
f 724/259 725/260 726/263
f 726/263 727/268 724/259
f 727/268 726/263 728/269
f 728/269 729/275 727/268
f 603/244 723/257 592/231
f 725/260 723/257 603/244
f 603/244 730/261 725/260
f 725/260 730/261 731/264
f 731/264 726/263 725/260
f 726/263 731/264 732/270
f 732/270 728/269 726/263
f 728/269 732/270 733/277
f 733/277 734/276 728/269
f 729/275 728/269 734/276
f 734/276 735/281 729/275
f 736/287 735/281 734/276
f 730/261 603/244 602/243
f 602/243 737/262 730/261
f 730/261 737/262 738/265
f 738/265 731/264 730/261
f 731/264 738/265 739/271
f 739/271 732/270 731/264
f 732/270 739/271 740/278
f 740/278 733/277 732/270
f 733/277 740/278 741/284
f 741/284 742/283 733/277
f 734/276 733/277 742/283
f 737/262 602/243 608/250
f 608/250 743/267 737/262
f 737/262 743/267 744/266
f 744/266 738/265 737/262
f 738/265 744/266 745/272
f 745/272 739/271 738/265
f 739/271 745/272 746/279
f 746/279 740/278 739/271
f 740/278 746/279 747/285
f 747/285 741/284 740/278
f 743/267 608/250 613/256
f 613/256 748/348 743/267
f 743/267 748/348 654/274
f 654/274 744/266 743/267
f 744/266 654/274 653/273
f 653/273 745/272 744/266
f 745/272 653/273 660/280
f 660/280 746/279 745/272
f 746/279 660/280 666/286
f 666/286 747/285 746/279
f 647/267 748/348 613/256
f 654/274 748/348 647/267
f 749/292 747/285 666/286
f 747/285 749/292 750/291
f 750/291 741/284 747/285
f 741/284 750/291 751/290
f 751/290 742/283 741/284
f 666/286 678/298 749/292
f 749/292 678/298 677/297
f 677/297 752/296 749/292
f 750/291 749/292 752/296
f 752/296 753/295 750/291
f 751/290 750/291 753/295
f 753/295 754/294 751/290
f 755/289 751/290 754/294
f 742/283 751/290 755/289
f 755/289 756/282 742/283
f 742/283 756/282 734/276
f 734/276 756/282 736/287
f 752/296 677/297 684/304
f 684/304 757/303 752/296
f 753/295 752/296 757/303
f 757/303 758/302 753/295
f 754/294 753/295 758/302
f 758/302 759/301 754/294
f 760/293 754/294 759/301
f 754/294 760/293 755/289
f 761/288 755/289 760/293
f 756/282 755/289 761/288
f 761/288 736/287 756/282
f 757/303 684/304 691/311
f 691/311 762/310 757/303
f 757/303 762/310 763/309
f 763/309 758/302 757/303
f 758/302 763/309 764/308
f 764/308 759/301 758/302
f 759/301 764/308 765/307
f 765/307 766/300 759/301
f 759/301 766/300 760/293
f 767/299 760/293 766/300
f 760/293 767/299 761/288
f 762/310 691/311 696/316
f 696/316 768/315 762/310
f 763/309 762/310 768/315
f 768/315 769/314 763/309
f 764/308 763/309 769/314
f 769/314 770/313 764/308
f 765/307 764/308 770/313
f 770/313 771/312 765/307
f 765/307 771/312 772/317
f 772/317 773/306 765/307
f 766/300 765/307 773/306
f 774/322 768/315 696/316
f 768/315 774/322 775/321
f 775/321 769/314 768/315
f 769/314 775/321 776/320
f 776/320 770/313 769/314
f 770/313 776/320 777/319
f 777/319 771/312 770/313
f 771/312 777/319 778/318
f 778/318 772/317 771/312
f 696/316 708/328 774/322
f 774/322 708/328 707/327
f 707/327 779/326 774/322
f 775/321 774/322 779/326
f 779/326 780/325 775/321
f 776/320 775/321 780/325
f 780/325 781/324 776/320
f 777/319 776/320 781/324
f 781/324 782/323 777/319
f 778/318 777/319 782/323
f 782/323 783/329 778/318
f 783/329 782/323 784/330
f 784/330 785/335 783/329
f 779/326 707/327 714/334
f 714/334 786/333 779/326
f 780/325 779/326 786/333
f 786/333 787/332 780/325
f 781/324 780/325 787/332
f 787/332 788/331 781/324
f 782/323 781/324 788/331
f 788/331 784/330 782/323
f 784/330 788/331 789/337
f 789/337 790/336 784/330
f 785/335 784/330 790/336
f 790/336 791/341 785/335
f 356/346 791/341 790/336
f 786/333 714/334 720/340
f 720/340 792/339 786/333
f 787/332 786/333 792/339
f 792/339 793/338 787/332
f 788/331 787/332 793/338
f 793/338 789/337 788/331
f 789/337 793/338 370/344
f 370/344 365/343 789/337
f 790/336 789/337 365/343
f 365/343 355/342 790/336
f 790/336 355/342 356/346
f 792/339 720/340 383/347
f 383/347 377/345 792/339
f 793/338 792/339 377/345
f 377/345 370/344 793/338
f 773/306 794/305 766/300
f 766/300 794/305 767/299
# 1440 elements

